G04 #@! TF.GenerationSoftware,KiCad,Pcbnew,(5.99.0-58-gd4aa502be)*
G04 #@! TF.CreationDate,2019-09-04T01:14:32-07:00*
G04 #@! TF.ProjectId,usb-motor,7573622d-6d6f-4746-9f72-2e6b69636164,rev?*
G04 #@! TF.SameCoordinates,Original*
G04 #@! TF.FileFunction,Profile,NP*
%FSLAX46Y46*%
G04 Gerber Fmt 4.6, Leading zero omitted, Abs format (unit mm)*
G04 Created by KiCad (PCBNEW (5.99.0-58-gd4aa502be)) date 2019-09-04 01:14:32*
%MOMM*%
%LPD*%
G04 APERTURE LIST*
%ADD10C,0.038100*%
G04 APERTURE END LIST*
D10*
X106680000Y-81280000D02*
X111760000Y-81280000D01*
X95250000Y-81280000D02*
X100330000Y-81280000D01*
X83820000Y-81280000D02*
X88900000Y-81280000D01*
X66040000Y-81280000D02*
X71120000Y-81280000D01*
X54610000Y-81280000D02*
X59690000Y-81280000D01*
X43180000Y-81280000D02*
X48260000Y-81280000D01*
X43180000Y-106680000D02*
X48260000Y-106680000D01*
X48260000Y-109220000D02*
X43180000Y-109220000D01*
X54610000Y-109220000D02*
X59690000Y-109220000D01*
X59690000Y-106680000D02*
X54610000Y-106680000D01*
X66040000Y-109220000D02*
X71120000Y-109220000D01*
X71120000Y-106680000D02*
X66040000Y-106680000D01*
X83820000Y-106680000D02*
X88900000Y-106680000D01*
X88900000Y-109220000D02*
X83820000Y-109220000D01*
X95250000Y-109220000D02*
X100330000Y-109220000D01*
X100330000Y-106680000D02*
X95250000Y-106680000D01*
X106680000Y-106680000D02*
X111760000Y-106680000D01*
X111760000Y-109220000D02*
X106680000Y-109220000D01*
X78740000Y-113665000D02*
X78740000Y-118745000D01*
X76200000Y-118745000D02*
X76200000Y-113665000D01*
X76200000Y-130175000D02*
X76200000Y-125095000D01*
X78740000Y-130175000D02*
X78740000Y-125095000D01*
X48260000Y-134620000D02*
X43180000Y-134620000D01*
X59690000Y-134620000D02*
X54610000Y-134620000D01*
X71120000Y-134620000D02*
X66040000Y-134620000D01*
X106680000Y-134620000D02*
X111760000Y-134620000D01*
X95250000Y-134620000D02*
X100330000Y-134620000D01*
X88900000Y-134620000D02*
X83820000Y-134620000D01*
X76200000Y-137160000D02*
X78740000Y-137160000D01*
X76200000Y-78740000D02*
X78740000Y-78740000D01*
X116840000Y-73660000D02*
X116840000Y-78740000D01*
X38100000Y-73660000D02*
X116840000Y-73660000D01*
X38100000Y-78740000D02*
X38100000Y-73660000D01*
X38100000Y-142240000D02*
X38100000Y-137160000D01*
X116840000Y-142240000D02*
X38100000Y-142240000D01*
X116840000Y-137160000D02*
X116840000Y-142240000D01*
X48260000Y-134620000D02*
X48260000Y-137160000D01*
X43180000Y-134620000D02*
X38100000Y-134620000D01*
X48260000Y-134620000D02*
X54610000Y-134620000D01*
X59690000Y-134620000D02*
X59690000Y-137160000D01*
X43180000Y-134620000D02*
X43180000Y-137160000D01*
X48260000Y-137160000D02*
X54610000Y-137160000D01*
X54610000Y-137160000D02*
X54610000Y-134620000D01*
X66040000Y-137160000D02*
X66040000Y-134620000D01*
X66040000Y-134620000D02*
X59690000Y-134620000D01*
X43180000Y-137160000D02*
X38100000Y-137160000D01*
X76200000Y-134620000D02*
X71120000Y-134620000D01*
X59690000Y-137160000D02*
X66040000Y-137160000D01*
X71120000Y-137160000D02*
X76200000Y-137160000D01*
X71120000Y-134620000D02*
X71120000Y-137160000D01*
X83820000Y-137160000D02*
X78740000Y-137160000D01*
X88900000Y-134620000D02*
X88900000Y-137160000D01*
X88900000Y-137160000D02*
X95250000Y-137160000D01*
X95250000Y-134620000D02*
X88900000Y-134620000D01*
X78740000Y-134620000D02*
X83820000Y-134620000D01*
X83820000Y-134620000D02*
X83820000Y-137160000D01*
X95250000Y-137160000D02*
X95250000Y-134620000D01*
X100330000Y-134620000D02*
X100330000Y-137160000D01*
X116840000Y-134620000D02*
X111760000Y-134620000D01*
X106680000Y-137160000D02*
X106680000Y-134620000D01*
X100330000Y-137160000D02*
X106680000Y-137160000D01*
X106680000Y-134620000D02*
X100330000Y-134620000D01*
X111760000Y-137160000D02*
X116840000Y-137160000D01*
X111760000Y-134620000D02*
X111760000Y-137160000D01*
X48260000Y-78740000D02*
X48260000Y-81280000D01*
X43180000Y-78740000D02*
X38100000Y-78740000D01*
X48260000Y-78740000D02*
X54610000Y-78740000D01*
X59690000Y-78740000D02*
X59690000Y-81280000D01*
X43180000Y-78740000D02*
X43180000Y-81280000D01*
X48260000Y-81280000D02*
X54610000Y-81280000D01*
X54610000Y-81280000D02*
X54610000Y-78740000D01*
X66040000Y-81280000D02*
X66040000Y-78740000D01*
X66040000Y-78740000D02*
X59690000Y-78740000D01*
X43180000Y-81280000D02*
X38100000Y-81280000D01*
X76200000Y-78740000D02*
X71120000Y-78740000D01*
X59690000Y-81280000D02*
X66040000Y-81280000D01*
X71120000Y-81280000D02*
X76200000Y-81280000D01*
X71120000Y-78740000D02*
X71120000Y-81280000D01*
X83820000Y-81280000D02*
X78740000Y-81280000D01*
X88900000Y-78740000D02*
X88900000Y-81280000D01*
X88900000Y-81280000D02*
X95250000Y-81280000D01*
X95250000Y-78740000D02*
X88900000Y-78740000D01*
X78740000Y-78740000D02*
X83820000Y-78740000D01*
X83820000Y-78740000D02*
X83820000Y-81280000D01*
X95250000Y-81280000D02*
X95250000Y-78740000D01*
X100330000Y-78740000D02*
X100330000Y-81280000D01*
X116840000Y-78740000D02*
X111760000Y-78740000D01*
X106680000Y-81280000D02*
X106680000Y-78740000D01*
X100330000Y-81280000D02*
X106680000Y-81280000D01*
X106680000Y-78740000D02*
X100330000Y-78740000D01*
X111760000Y-81280000D02*
X116840000Y-81280000D01*
X111760000Y-78740000D02*
X111760000Y-81280000D01*
X78740000Y-113665000D02*
X78740000Y-109220000D01*
X76200000Y-113665000D02*
X78740000Y-113665000D01*
X76200000Y-109220000D02*
X76200000Y-113665000D01*
X76200000Y-125095000D02*
X78740000Y-125095000D01*
X76200000Y-118745000D02*
X76200000Y-125095000D01*
X78740000Y-118745000D02*
X76200000Y-118745000D01*
X78740000Y-125095000D02*
X78740000Y-118745000D01*
X78740000Y-130175000D02*
X78740000Y-134620000D01*
X76200000Y-130175000D02*
X78740000Y-130175000D01*
X76200000Y-134620000D02*
X76200000Y-130175000D01*
X111760000Y-109220000D02*
X116840000Y-109220000D01*
X111760000Y-106680000D02*
X111760000Y-109220000D01*
X116840000Y-106680000D02*
X111760000Y-106680000D01*
X106680000Y-106680000D02*
X100330000Y-106680000D01*
X106680000Y-109220000D02*
X106680000Y-106680000D01*
X100330000Y-109220000D02*
X106680000Y-109220000D01*
X100330000Y-106680000D02*
X100330000Y-109220000D01*
X95250000Y-106680000D02*
X88900000Y-106680000D01*
X95250000Y-109220000D02*
X95250000Y-106680000D01*
X88900000Y-109220000D02*
X95250000Y-109220000D01*
X88900000Y-106680000D02*
X88900000Y-109220000D01*
X83820000Y-109220000D02*
X78740000Y-109220000D01*
X83820000Y-106680000D02*
X83820000Y-109220000D01*
X78740000Y-106680000D02*
X83820000Y-106680000D01*
X78740000Y-85725000D02*
X78740000Y-81280000D01*
X76200000Y-85725000D02*
X78740000Y-85725000D01*
X76200000Y-81280000D02*
X76200000Y-85725000D01*
X78740000Y-90805000D02*
X78740000Y-97155000D01*
X76200000Y-90805000D02*
X78740000Y-90805000D01*
X76200000Y-97155000D02*
X76200000Y-90805000D01*
X78740000Y-97155000D02*
X76200000Y-97155000D01*
X78740000Y-102235000D02*
X78740000Y-106680000D01*
X76200000Y-102235000D02*
X78740000Y-102235000D01*
X76200000Y-106680000D02*
X76200000Y-102235000D01*
X71120000Y-109220000D02*
X76200000Y-109220000D01*
X71120000Y-106680000D02*
X71120000Y-109220000D01*
X76200000Y-106680000D02*
X71120000Y-106680000D01*
X59690000Y-109220000D02*
X66040000Y-109220000D01*
X59690000Y-106680000D02*
X59690000Y-109220000D01*
X66040000Y-106680000D02*
X59690000Y-106680000D01*
X66040000Y-109220000D02*
X66040000Y-106680000D01*
X48260000Y-109220000D02*
X54610000Y-109220000D01*
X48260000Y-106680000D02*
X48260000Y-109220000D01*
X54610000Y-109220000D02*
X54610000Y-106680000D01*
X48260000Y-106680000D02*
X54610000Y-106680000D01*
X43180000Y-106680000D02*
X38100000Y-106680000D01*
X43180000Y-109220000D02*
X38100000Y-109220000D01*
X43180000Y-106680000D02*
X43180000Y-109220000D01*
X38100000Y-81280000D02*
X38100000Y-106680000D01*
X116840000Y-134620000D02*
X116840000Y-109220000D01*
X116840000Y-106680000D02*
X116840000Y-81280000D01*
X38100000Y-109220000D02*
X38100000Y-134620000D01*
M02*
