M48
; DRILL file {KiCad (5.99.0-58-gd4aa502be)} date 9/4/2019 1:14:39 AM
; FORMAT={-:-/ absolute / inch / decimal}
; #@! TF.CreationDate,2019-09-04T01:14:39-07:00
; #@! TF.GenerationSoftware,Kicad,Pcbnew,(5.99.0-58-gd4aa502be)
FMAT,2
INCH
T1C0.0079
T2C0.0100
T3C0.0118
T4C0.0130
T5C0.0150
T6C0.0157
T7C0.0177
T8C0.0374
T9C0.0394
T10C0.0866
T11C0.1063
T12C0.0310
T13C0.0390
T14C0.0472
T15C0.0669
%
G90
G05
T1
X3.3981Y-3.8744
X3.3981Y-3.915
X3.3981Y-3.9556
T2
X1.534Y-4.94
X1.63Y-5.0
X1.7693Y-4.9473
X1.8217Y-3.9244
X1.85Y-4.87
X1.86Y-3.855
X1.975Y-3.76
X1.9965Y-3.6018
X2.0184Y-3.869
X2.035Y-3.76
X2.052Y-4.702
X2.0742Y-4.8398
X2.082Y-4.91
X2.084Y-4.7071
X2.111Y-4.669
X2.1378Y-3.6465
X2.14Y-3.87
X2.147Y-4.797
X2.163Y-4.663
X2.164Y-4.697
X2.17Y-4.7237
X2.176Y-4.644
X2.1795Y-3.865
X2.1918Y-4.806
X2.207Y-4.644
X2.214Y-4.8156
X2.215Y-4.53
X2.228Y-4.751
X2.239Y-4.644
X2.244Y-4.8156
X2.2457Y-3.7689
X2.259Y-4.567
X2.261Y-4.7559
X2.2625Y-4.7136
X2.27Y-4.44
X2.27Y-4.525
X2.274Y-4.601
X2.2813Y-3.9765
X2.282Y-4.8156
X2.285Y-3.7679
X2.3035Y-3.7512
X2.304Y-4.635
X2.3245Y-3.7685
X2.327Y-4.611
X2.328Y-4.556
X2.372Y-4.8123
X2.3787Y-3.8087
X2.3925Y-4.735
X2.3938Y-3.9174
X2.4Y-3.86
X2.415Y-4.725
X2.416Y-5.043
X2.4169Y-4.7598
X2.4245Y-3.5394
X2.445Y-4.02
X2.447Y-4.727
X2.4721Y-4.5429
X2.5494Y-5.0414
X2.5525Y-3.5754
X2.6469Y-5.0809
X2.649Y-4.599
X2.6535Y-3.5854
X3.2425Y-3.5476
X3.243Y-3.516
X3.2882Y-3.8476
X3.3039Y-3.7681
X3.3063Y-3.5311
X3.3212Y-3.8948
X3.3717Y-3.5346
X3.3755Y-3.827
X3.4355Y-3.562
X3.4805Y-3.4195
X3.4894Y-3.9472
X3.496Y-3.717
X3.5095Y-3.242
X3.5175Y-3.6225
X3.5182Y-3.443
X3.5235Y-3.678
X3.5245Y-3.599
X3.5273Y-3.8162
X3.5337Y-3.5779
X3.5393Y-3.6992
X3.5437Y-3.5031
X3.5465Y-4.0425
X3.5505Y-3.5513
X3.556Y-3.985
X3.56Y-3.439
X3.562Y-3.239
X3.5738Y-3.5142
X3.5778Y-3.5371
X3.5812Y-4.0274
X3.5892Y-3.4337
X3.5935Y-3.977
X3.609Y-3.5125
X3.632Y-3.4595
X3.6322Y-3.3352
X3.6535Y-3.8525
X3.676Y-3.954
X3.69Y-3.5125
X3.69Y-3.799
X3.6925Y-3.8525
X3.6996Y-3.4695
X3.7677Y-3.4275
X3.7935Y-3.9155
X3.7996Y-3.78
X3.8197Y-3.6398
X3.8215Y-3.799
X3.822Y-3.6799
X3.8254Y-3.4976
X3.827Y-3.55
X3.827Y-3.5795
X3.8285Y-3.889
X3.8575Y-3.9945
X3.9114Y-4.5701
X3.9825Y-4.5337
X4.014Y-3.7135
X4.084Y-3.8955
X4.1112Y-3.8151
X4.1326Y-3.4131
X4.1525Y-3.8175
X4.1542Y-3.4703
X4.158Y-3.9145
X4.2161Y-3.8331
X4.235Y-3.3625
X4.2617Y-3.8634
X4.2777Y-3.4162
X4.3208Y-3.4665
X4.3245Y-3.4893
X4.3803Y-4.8492
X4.3894Y-3.7291
X4.428Y-3.6896
X4.4336Y-3.7525
X4.4366Y-3.6446
X4.4613Y-3.7101
X4.4673Y-4.7406
X4.4884Y-3.6724
X2.2523Y-3.8363
X2.2523Y-3.8724
X2.2523Y-3.9085
X2.2884Y-3.8363
X2.2884Y-3.8724
X2.2884Y-3.9085
X2.3245Y-3.8363
X2.3245Y-3.8724
X2.3245Y-3.9085
X4.2375Y-3.7459
X4.2375Y-3.7853
X4.2975Y-3.7459
X4.2975Y-3.7853
X4.2253Y-3.4853
X4.2253Y-3.5247
X4.245Y-3.505
X4.2647Y-3.4853
X4.2647Y-3.5247
X3.9959Y-3.815
X3.9959Y-3.875
X4.0353Y-3.815
X4.0353Y-3.875
X4.2608Y-3.64
X4.3042Y-3.64
X3.5213Y-5.0038
X3.5213Y-5.049
X3.5803Y-5.0038
X3.5803Y-5.049
X3.6394Y-5.0038
X3.6394Y-5.049
X3.7004Y-4.5993
X3.7004Y-4.6445
X3.7004Y-5.0038
X3.7004Y-5.049
X3.7594Y-4.5993
X3.7594Y-4.6445
X3.7594Y-5.0038
X3.7594Y-5.049
X3.8424Y-4.8878
X3.8424Y-4.933
X3.9014Y-4.8878
X3.9014Y-4.933
X3.6121Y-3.5821
X3.6121Y-3.6274
X3.6121Y-3.6726
X3.6121Y-3.7179
X3.6574Y-3.5821
X3.6574Y-3.6274
X3.6574Y-3.6726
X3.6574Y-3.7179
X3.7026Y-3.5821
X3.7026Y-3.6274
X3.7026Y-3.6726
X3.7026Y-3.7179
X3.7479Y-3.5821
X3.7479Y-3.6274
X3.7479Y-3.6726
X3.7479Y-3.7179
X2.1966Y-4.6841
X2.1966Y-4.7209
X2.215Y-4.7025
X2.2334Y-4.6841
X2.2334Y-4.7209
T3
X2.4283Y-4.4492
X2.4283Y-4.4866
X2.4519Y-4.4492
X2.4519Y-4.4866
X2.4913Y-4.4492
X2.4913Y-4.4866
X2.5149Y-4.4492
X2.5149Y-4.4866
X2.0512Y-3.5558
X2.0516Y-3.6302
X2.0902Y-3.5558
X2.0902Y-3.631
X2.4566Y-3.5538
X2.4566Y-3.629
X2.4952Y-3.5546
X2.4956Y-3.629
T4
X1.615Y-3.51
X1.615Y-3.675
X1.705Y-3.51
X1.705Y-3.675
X1.735Y-5.095
X1.735Y-5.165
X1.775Y-4.515
X1.775Y-4.59
X1.78Y-4.735
X1.8Y-3.51
X1.8Y-3.675
X1.8015Y-4.8615
X1.805Y-3.25
X1.835Y-4.765
X1.874Y-4.673
X1.875Y-3.96
X1.905Y-3.325
X1.91Y-3.49
X1.925Y-3.965
X1.965Y-3.835
X1.97Y-3.325
X1.985Y-3.49
X2.04Y-3.305
X2.13Y-3.78
X2.205Y-4.05
X2.39Y-4.08
X2.445Y-3.925
X2.455Y-3.375
X2.455Y-3.85
X2.475Y-3.515
X2.475Y-3.68
X2.475Y-4.08
X2.49Y-4.04
X2.545Y-4.41
X2.555Y-3.275
X2.555Y-4.515
X2.56Y-3.745
X2.58Y-3.435
X2.595Y-3.58
X2.61Y-4.4
X2.61Y-4.47
X2.67Y-4.565
X2.675Y-3.785
X2.705Y-4.485
X2.715Y-4.625
X2.745Y-3.435
X3.252Y-3.7045
X3.416Y-3.5205
X3.8959Y-4.6291
X4.055Y-4.92
X4.333Y-3.8865
T5
X3.225Y-4.57
X3.26Y-4.65
X3.27Y-4.525
X3.295Y-4.595
X3.315Y-4.48
X3.33Y-4.55
X3.35Y-5.1
X3.35Y-5.225
X3.445Y-5.1
X3.445Y-5.23
X3.45Y-4.51
X3.525Y-4.725
X3.53Y-4.885
X3.545Y-4.51
X3.55Y-5.095
X3.555Y-5.235
X3.62Y-4.805
X3.655Y-4.48
X3.655Y-4.535
X3.665Y-5.1
X3.67Y-5.24
X3.7Y-4.725
X3.705Y-4.895
X3.73Y-4.545
X3.83Y-4.56
X3.835Y-4.65
X3.99Y-4.745
X3.99Y-4.79
X4.015Y-5.045
X4.14Y-4.99
X4.3388Y-3.6933
X4.4918Y-3.759
X4.492Y-3.6409
T6
X2.835Y-5.2
X2.8541Y-5.1541
X2.8541Y-5.2459
X2.9Y-5.135
X2.9Y-5.265
X2.9459Y-5.1541
X2.9459Y-5.2459
X2.965Y-5.2
X4.435Y-4.4
X4.4541Y-4.3541
X4.4541Y-4.4459
X4.5Y-4.335
X4.5Y-4.465
X4.5459Y-4.3541
X4.5459Y-4.4459
X4.565Y-4.4
X1.535Y-5.2
X1.5541Y-5.1541
X1.5541Y-5.2459
X1.6Y-5.135
X1.6Y-5.265
X1.6459Y-5.1541
X1.6459Y-5.2459
X1.665Y-5.2
X2.835Y-4.4
X2.8541Y-4.3541
X2.8541Y-4.4459
X2.9Y-4.335
X2.9Y-4.465
X2.9459Y-4.3541
X2.9459Y-4.4459
X2.965Y-4.4
X3.136Y-4.4009
X3.155Y-4.355
X3.155Y-4.4469
X3.2009Y-4.336
X3.2009Y-4.4659
X3.2469Y-4.355
X3.2469Y-4.4469
X3.2659Y-4.4009
X2.835Y-3.3
X2.8541Y-3.2541
X2.8541Y-3.3459
X2.9Y-3.235
X2.9Y-3.365
X2.9459Y-3.2541
X2.9459Y-3.3459
X2.965Y-3.3
X3.135Y-4.1
X3.1541Y-4.0541
X3.1541Y-4.1459
X3.2Y-4.035
X3.2Y-4.165
X3.2459Y-4.0541
X3.2459Y-4.1459
X3.265Y-4.1
X1.535Y-3.3
X1.5541Y-3.2541
X1.5541Y-3.3459
X1.6Y-3.235
X1.6Y-3.365
X1.6459Y-3.2541
X1.6459Y-3.3459
X1.665Y-3.3
X1.535Y-4.1
X1.5541Y-4.0541
X1.5541Y-4.1459
X1.6Y-4.035
X1.6Y-4.165
X1.6459Y-4.0541
X1.6459Y-4.1459
X1.665Y-4.1
X3.135Y-3.3
X3.1541Y-3.2541
X3.1541Y-3.3459
X3.2Y-3.235
X3.2Y-3.365
X3.2459Y-3.2541
X3.2459Y-3.3459
X3.265Y-3.3
X4.435Y-3.3
X4.4541Y-3.2541
X4.4541Y-3.346
X4.5Y-3.2351
X4.5Y-3.365
X4.5459Y-3.2541
X4.5459Y-3.346
X4.565Y-3.3
X4.435Y-4.1
X4.4541Y-4.0541
X4.4541Y-4.1459
X4.5Y-4.035
X4.5Y-4.165
X4.5459Y-4.0541
X4.5459Y-4.1459
X4.565Y-4.1
X1.535Y-4.4
X1.5541Y-4.3541
X1.5541Y-4.4459
X1.6Y-4.335
X1.6Y-4.465
X1.6459Y-4.3541
X1.6459Y-4.4459
X1.665Y-4.4
X2.835Y-4.1
X2.8541Y-4.0541
X2.8541Y-4.1459
X2.9Y-4.035
X2.9Y-4.165
X2.9459Y-4.0541
X2.9459Y-4.1459
X2.965Y-4.1
X4.435Y-5.2
X4.4541Y-5.1541
X4.4541Y-5.2459
X4.5Y-5.135
X4.5Y-5.265
X4.5459Y-5.1541
X4.5459Y-5.2459
X4.565Y-5.2
X3.135Y-5.2
X3.1541Y-5.1541
X3.1541Y-5.2459
X3.2Y-5.135
X3.2Y-5.265
X3.2459Y-5.1541
X3.2459Y-5.2459
X3.265Y-5.2
T8
X1.8108Y-5.1865
X1.9092Y-5.1865
X2.0076Y-5.1865
X2.1061Y-5.1865
X2.2045Y-5.1865
T9
X3.175Y-3.815
X3.175Y-3.915
X1.8375Y-3.4165
X1.9375Y-3.4165
X3.43Y-4.125
X3.53Y-4.125
X3.63Y-4.125
X3.73Y-4.125
X3.83Y-4.125
X3.93Y-4.125
X4.03Y-4.125
X4.13Y-4.125
X4.23Y-4.125
X4.33Y-4.125
X2.08Y-4.375
X2.18Y-4.375
X2.63Y-3.275
X2.73Y-3.275
X1.77Y-4.125
X1.87Y-4.125
X1.97Y-4.125
X2.07Y-4.125
X3.785Y-3.275
X3.885Y-3.275
X3.43Y-4.375
X3.53Y-4.375
X3.63Y-4.375
X3.73Y-4.375
X3.83Y-4.375
X3.93Y-4.375
X4.03Y-4.375
X4.13Y-4.375
X4.23Y-4.375
X4.33Y-4.375
X4.03Y-3.275
X4.13Y-3.275
X4.23Y-3.275
X4.33Y-3.275
X3.175Y-3.47
X3.175Y-3.57
X3.175Y-3.67
X3.9772Y-3.4185
X2.73Y-5.125
X2.73Y-5.225
X4.0625Y-3.9835
X4.1625Y-3.9835
X4.2625Y-3.9835
X2.39Y-5.1275
X2.39Y-5.2275
X2.49Y-5.1275
X2.49Y-5.2275
X2.59Y-5.1275
X2.59Y-5.2275
X3.83Y-5.225
X3.93Y-5.225
X4.03Y-5.225
X4.13Y-5.225
X4.23Y-5.225
X4.33Y-5.225
X2.73Y-4.025
X2.73Y-4.125
X3.175Y-4.7764
X3.175Y-4.8764
X1.835Y-4.375
X1.935Y-4.375
X3.37Y-3.275
X3.37Y-3.375
T10
X1.6Y-4.1
X3.2Y-3.3
X4.5Y-3.3
X4.5Y-4.1
X1.6Y-4.4
X2.9Y-4.1
X4.5Y-5.2
X3.2Y-5.2
X2.9Y-5.2
X4.5Y-4.4
X1.6Y-5.2
X2.9Y-4.4
X3.2Y-4.4
X2.9Y-3.3
X3.2Y-4.1
X1.6Y-3.3
T11
X2.875Y-3.5181
X2.875Y-3.715
X1.625Y-4.6181
X1.625Y-4.815
X2.875Y-4.6181
X2.875Y-4.815
T12
X3.325Y-4.29
X3.375Y-4.29
X3.425Y-4.29
X3.475Y-4.29
X3.775Y-3.19
X3.825Y-3.19
X3.875Y-3.19
X3.925Y-3.19
X1.725Y-4.21
X1.775Y-4.21
X1.825Y-4.21
X1.875Y-4.21
X4.225Y-4.29
X4.275Y-4.29
X4.325Y-4.29
X4.375Y-4.29
X1.725Y-5.3
X1.775Y-5.3
X1.825Y-5.3
X1.875Y-5.3
X3.09Y-3.85
X3.09Y-3.9
X3.09Y-3.95
X3.09Y-4.0
X3.325Y-3.19
X3.375Y-3.19
X3.425Y-3.19
X3.475Y-3.19
X3.775Y-4.29
X3.825Y-4.29
X3.875Y-4.29
X3.925Y-4.29
X2.175Y-3.19
X2.225Y-3.19
X2.275Y-3.19
X2.325Y-3.19
X3.775Y-5.3
X3.825Y-5.3
X3.875Y-5.3
X3.925Y-5.3
X3.09Y-3.4
X3.09Y-3.45
X3.09Y-3.5
X3.09Y-3.55
X3.09Y-4.5
X3.09Y-4.55
X3.09Y-4.6
X3.09Y-4.65
X1.725Y-4.29
X1.775Y-4.29
X1.825Y-4.29
X1.875Y-4.29
X3.01Y-3.4
X3.01Y-3.45
X3.01Y-3.5
X3.01Y-3.55
X2.625Y-4.21
X2.675Y-4.21
X2.725Y-4.21
X2.775Y-4.21
X4.225Y-3.19
X4.275Y-3.19
X4.325Y-3.19
X4.375Y-3.19
X3.01Y-3.85
X3.01Y-3.9
X3.01Y-3.95
X3.01Y-4.0
X3.01Y-4.5
X3.01Y-4.55
X3.01Y-4.6
X3.01Y-4.65
X2.625Y-4.29
X2.675Y-4.29
X2.725Y-4.29
X2.775Y-4.29
X3.775Y-4.21
X3.825Y-4.21
X3.875Y-4.21
X3.925Y-4.21
X2.175Y-4.29
X2.225Y-4.29
X2.275Y-4.29
X2.325Y-4.29
X2.625Y-3.19
X2.675Y-3.19
X2.725Y-3.19
X2.775Y-3.19
X2.175Y-5.3
X2.225Y-5.3
X2.275Y-5.3
X2.325Y-5.3
X3.01Y-4.95
X3.01Y-5.0
X3.01Y-5.05
X3.01Y-5.1
X3.09Y-4.95
X3.09Y-5.0
X3.09Y-5.05
X3.09Y-5.1
X2.175Y-4.21
X2.225Y-4.21
X2.275Y-4.21
X2.325Y-4.21
X1.725Y-3.19
X1.775Y-3.19
X1.825Y-3.19
X1.875Y-3.19
X3.325Y-5.3
X3.375Y-5.3
X3.425Y-5.3
X3.475Y-5.3
X4.225Y-4.21
X4.275Y-4.21
X4.325Y-4.21
X4.375Y-4.21
X3.325Y-4.21
X3.375Y-4.21
X3.425Y-4.21
X3.475Y-4.21
X2.625Y-5.3
X2.675Y-5.3
X2.725Y-5.3
X2.775Y-5.3
X4.225Y-5.3
X4.275Y-5.3
X4.325Y-5.3
X4.375Y-5.3
T13
X3.4775Y-3.2825
X3.6775Y-3.2425
X3.6775Y-3.3225
T14
X2.2675Y-5.1078
T15
X4.4039Y-3.4142
X4.4039Y-3.9858
T7
G00X4.398Y-3.5248
M15
G01X4.4374Y-3.5248
M16
G05
G00X4.398Y-3.8752
M15
G01X4.4374Y-3.8752
M16
G05
G00X4.52Y-3.5248
M15
G01X4.5673Y-3.5248
M16
G05
G00X4.52Y-3.8752
M15
G01X4.5673Y-3.8752
M16
G05
T0
M30
