G04 #@! TF.GenerationSoftware,KiCad,Pcbnew,(5.99.0-58-gd4aa502be)*
G04 #@! TF.CreationDate,2019-09-04T01:14:32-07:00*
G04 #@! TF.ProjectId,usb-motor,7573622d-6d6f-4746-9f72-2e6b69636164,rev?*
G04 #@! TF.SameCoordinates,Original*
G04 #@! TF.FileFunction,Legend,Bot*
G04 #@! TF.FilePolarity,Positive*
%FSLAX46Y46*%
G04 Gerber Fmt 4.6, Leading zero omitted, Abs format (unit mm)*
G04 Created by KiCad (PCBNEW (5.99.0-58-gd4aa502be)) date 2019-09-04 01:14:32*
%MOMM*%
%LPD*%
G04 APERTURE LIST*
%ADD10C,0.254000*%
%ADD11C,0.127000*%
G04 APERTURE END LIST*
D10*
X61468000Y-93472000D02*
X61468000Y-104140000D01*
X42545000Y-104140000D02*
X42545000Y-90170000D01*
X69723000Y-96266000D02*
X42545000Y-96266000D01*
X69723000Y-93472000D02*
X42545000Y-93472000D01*
X69723000Y-104140000D02*
X42545000Y-104140000D01*
X69723000Y-99060000D02*
X42545000Y-99060000D01*
X69723000Y-90170000D02*
X69723000Y-104140000D01*
X69723000Y-101854000D02*
X42545000Y-101854000D01*
X42545000Y-90170000D02*
X69723000Y-90170000D01*
X65278000Y-93472000D02*
X65278000Y-104140000D01*
D11*
X67808021Y-93300005D02*
X67880592Y-93263720D01*
X67953164Y-93191148D01*
X68062021Y-93082291D01*
X68134592Y-93046005D01*
X68207164Y-93046005D01*
X68170878Y-93227434D02*
X68243450Y-93191148D01*
X68316021Y-93118577D01*
X68352307Y-92973434D01*
X68352307Y-92719434D01*
X68316021Y-92574291D01*
X68243450Y-92501720D01*
X68170878Y-92465434D01*
X68025735Y-92465434D01*
X67953164Y-92501720D01*
X67880592Y-92574291D01*
X67844307Y-92719434D01*
X67844307Y-92973434D01*
X67880592Y-93118577D01*
X67953164Y-93191148D01*
X68025735Y-93227434D01*
X68170878Y-93227434D01*
X67554021Y-93009720D02*
X67191164Y-93009720D01*
X67626592Y-93227434D02*
X67372592Y-92465434D01*
X67118592Y-93227434D01*
X66864592Y-93154862D02*
X66828307Y-93191148D01*
X66864592Y-93227434D01*
X66900878Y-93191148D01*
X66864592Y-93154862D01*
X66864592Y-93227434D01*
X66864592Y-92755720D02*
X66828307Y-92792005D01*
X66864592Y-92828291D01*
X66900878Y-92792005D01*
X66864592Y-92755720D01*
X66864592Y-92828291D01*
X64760021Y-93227434D02*
X64760021Y-92465434D01*
X64469735Y-92465434D01*
X64397164Y-92501720D01*
X64360878Y-92538005D01*
X64324592Y-92610577D01*
X64324592Y-92719434D01*
X64360878Y-92792005D01*
X64397164Y-92828291D01*
X64469735Y-92864577D01*
X64760021Y-92864577D01*
X64034307Y-93009720D02*
X63671450Y-93009720D01*
X64106878Y-93227434D02*
X63852878Y-92465434D01*
X63598878Y-93227434D01*
X63381164Y-93191148D02*
X63272307Y-93227434D01*
X63090878Y-93227434D01*
X63018307Y-93191148D01*
X62982021Y-93154862D01*
X62945735Y-93082291D01*
X62945735Y-93009720D01*
X62982021Y-92937148D01*
X63018307Y-92900862D01*
X63090878Y-92864577D01*
X63236021Y-92828291D01*
X63308592Y-92792005D01*
X63344878Y-92755720D01*
X63381164Y-92683148D01*
X63381164Y-92610577D01*
X63344878Y-92538005D01*
X63308592Y-92501720D01*
X63236021Y-92465434D01*
X63054592Y-92465434D01*
X62945735Y-92501720D01*
X62655450Y-93191148D02*
X62546592Y-93227434D01*
X62365164Y-93227434D01*
X62292592Y-93191148D01*
X62256307Y-93154862D01*
X62220021Y-93082291D01*
X62220021Y-93009720D01*
X62256307Y-92937148D01*
X62292592Y-92900862D01*
X62365164Y-92864577D01*
X62510307Y-92828291D01*
X62582878Y-92792005D01*
X62619164Y-92755720D01*
X62655450Y-92683148D01*
X62655450Y-92610577D01*
X62619164Y-92538005D01*
X62582878Y-92501720D01*
X62510307Y-92465434D01*
X62328878Y-92465434D01*
X62220021Y-92501720D01*
X60478307Y-92828291D02*
X60732307Y-92828291D01*
X60732307Y-93227434D02*
X60732307Y-92465434D01*
X60369450Y-92465434D01*
X60115450Y-93009720D02*
X59752592Y-93009720D01*
X60188021Y-93227434D02*
X59934021Y-92465434D01*
X59680021Y-93227434D01*
X59426021Y-93227434D02*
X59426021Y-92465434D01*
X58700307Y-93227434D02*
X59063164Y-93227434D01*
X59063164Y-92465434D01*
X58446307Y-92465434D02*
X58446307Y-93082291D01*
X58410021Y-93154862D01*
X58373735Y-93191148D01*
X58301164Y-93227434D01*
X58156021Y-93227434D01*
X58083450Y-93191148D01*
X58047164Y-93154862D01*
X58010878Y-93082291D01*
X58010878Y-92465434D01*
X57212592Y-93227434D02*
X57466592Y-92864577D01*
X57648021Y-93227434D02*
X57648021Y-92465434D01*
X57357735Y-92465434D01*
X57285164Y-92501720D01*
X57248878Y-92538005D01*
X57212592Y-92610577D01*
X57212592Y-92719434D01*
X57248878Y-92792005D01*
X57285164Y-92828291D01*
X57357735Y-92864577D01*
X57648021Y-92864577D01*
X56886021Y-92828291D02*
X56632021Y-92828291D01*
X56523164Y-93227434D02*
X56886021Y-93227434D01*
X56886021Y-92465434D01*
X56523164Y-92465434D01*
X55616021Y-93227434D02*
X55616021Y-92465434D01*
X55434592Y-92465434D01*
X55325735Y-92501720D01*
X55253164Y-92574291D01*
X55216878Y-92646862D01*
X55180592Y-92792005D01*
X55180592Y-92900862D01*
X55216878Y-93046005D01*
X55253164Y-93118577D01*
X55325735Y-93191148D01*
X55434592Y-93227434D01*
X55616021Y-93227434D01*
X54854021Y-92828291D02*
X54600021Y-92828291D01*
X54491164Y-93227434D02*
X54854021Y-93227434D01*
X54854021Y-92465434D01*
X54491164Y-92465434D01*
X54200878Y-93191148D02*
X54092021Y-93227434D01*
X53910592Y-93227434D01*
X53838021Y-93191148D01*
X53801735Y-93154862D01*
X53765450Y-93082291D01*
X53765450Y-93009720D01*
X53801735Y-92937148D01*
X53838021Y-92900862D01*
X53910592Y-92864577D01*
X54055735Y-92828291D01*
X54128307Y-92792005D01*
X54164592Y-92755720D01*
X54200878Y-92683148D01*
X54200878Y-92610577D01*
X54164592Y-92538005D01*
X54128307Y-92501720D01*
X54055735Y-92465434D01*
X53874307Y-92465434D01*
X53765450Y-92501720D01*
X53003450Y-93154862D02*
X53039735Y-93191148D01*
X53148592Y-93227434D01*
X53221164Y-93227434D01*
X53330021Y-93191148D01*
X53402592Y-93118577D01*
X53438878Y-93046005D01*
X53475164Y-92900862D01*
X53475164Y-92792005D01*
X53438878Y-92646862D01*
X53402592Y-92574291D01*
X53330021Y-92501720D01*
X53221164Y-92465434D01*
X53148592Y-92465434D01*
X53039735Y-92501720D01*
X53003450Y-92538005D01*
X68062021Y-95281931D02*
X67953164Y-95318217D01*
X67916878Y-95354502D01*
X67880592Y-95427074D01*
X67880592Y-95535931D01*
X67916878Y-95608502D01*
X67953164Y-95644788D01*
X68025735Y-95681074D01*
X68316021Y-95681074D01*
X68316021Y-94919074D01*
X68062021Y-94919074D01*
X67989450Y-94955360D01*
X67953164Y-94991645D01*
X67916878Y-95064217D01*
X67916878Y-95136788D01*
X67953164Y-95209360D01*
X67989450Y-95245645D01*
X68062021Y-95281931D01*
X68316021Y-95281931D01*
X67118592Y-95681074D02*
X67372592Y-95318217D01*
X67554021Y-95681074D02*
X67554021Y-94919074D01*
X67263735Y-94919074D01*
X67191164Y-94955360D01*
X67154878Y-94991645D01*
X67118592Y-95064217D01*
X67118592Y-95173074D01*
X67154878Y-95245645D01*
X67191164Y-95281931D01*
X67263735Y-95318217D01*
X67554021Y-95318217D01*
X66792021Y-95681074D02*
X66792021Y-94919074D01*
X66610592Y-94919074D01*
X66501735Y-94955360D01*
X66429164Y-95027931D01*
X66392878Y-95100502D01*
X66356592Y-95245645D01*
X66356592Y-95354502D01*
X66392878Y-95499645D01*
X66429164Y-95572217D01*
X66501735Y-95644788D01*
X66610592Y-95681074D01*
X66792021Y-95681074D01*
X68316021Y-98134714D02*
X68316021Y-97372714D01*
X68025735Y-97372714D01*
X67953164Y-97409000D01*
X67916878Y-97445285D01*
X67880592Y-97517857D01*
X67880592Y-97626714D01*
X67916878Y-97699285D01*
X67953164Y-97735571D01*
X68025735Y-97771857D01*
X68316021Y-97771857D01*
X67191164Y-98134714D02*
X67554021Y-98134714D01*
X67554021Y-97372714D01*
X66501735Y-98062142D02*
X66538021Y-98098428D01*
X66646878Y-98134714D01*
X66719450Y-98134714D01*
X66828307Y-98098428D01*
X66900878Y-98025857D01*
X66937164Y-97953285D01*
X66973450Y-97808142D01*
X66973450Y-97699285D01*
X66937164Y-97554142D01*
X66900878Y-97481571D01*
X66828307Y-97409000D01*
X66719450Y-97372714D01*
X66646878Y-97372714D01*
X66538021Y-97409000D01*
X66501735Y-97445285D01*
X68316021Y-100588354D02*
X68316021Y-99826354D01*
X68025735Y-99826354D01*
X67953164Y-99862640D01*
X67916878Y-99898925D01*
X67880592Y-99971497D01*
X67880592Y-100080354D01*
X67916878Y-100152925D01*
X67953164Y-100189211D01*
X68025735Y-100225497D01*
X68316021Y-100225497D01*
X67626592Y-99826354D02*
X67445164Y-100588354D01*
X67300021Y-100044068D01*
X67154878Y-100588354D01*
X66973450Y-99826354D01*
X66247735Y-100588354D02*
X66501735Y-100225497D01*
X66683164Y-100588354D02*
X66683164Y-99826354D01*
X66392878Y-99826354D01*
X66320307Y-99862640D01*
X66284021Y-99898925D01*
X66247735Y-99971497D01*
X66247735Y-100080354D01*
X66284021Y-100152925D01*
X66320307Y-100189211D01*
X66392878Y-100225497D01*
X66683164Y-100225497D01*
X68062021Y-102642851D02*
X68316021Y-102642851D01*
X68316021Y-103041994D02*
X68316021Y-102279994D01*
X67953164Y-102279994D01*
X67662878Y-103041994D02*
X67662878Y-102279994D01*
X66864592Y-103041994D02*
X67118592Y-102679137D01*
X67300021Y-103041994D02*
X67300021Y-102279994D01*
X67009735Y-102279994D01*
X66937164Y-102316280D01*
X66900878Y-102352565D01*
X66864592Y-102425137D01*
X66864592Y-102533994D01*
X66900878Y-102606565D01*
X66937164Y-102642851D01*
X67009735Y-102679137D01*
X67300021Y-102679137D01*
X66538021Y-103041994D02*
X66538021Y-102279994D01*
X66284021Y-102824280D01*
X66030021Y-102279994D01*
X66030021Y-103041994D01*
X65767857Y-87615304D02*
X65767857Y-88232161D01*
X65731571Y-88304732D01*
X65695285Y-88341018D01*
X65622714Y-88377304D01*
X65477571Y-88377304D01*
X65405000Y-88341018D01*
X65368714Y-88304732D01*
X65332428Y-88232161D01*
X65332428Y-87615304D01*
X65005857Y-88341018D02*
X64897000Y-88377304D01*
X64715571Y-88377304D01*
X64643000Y-88341018D01*
X64606714Y-88304732D01*
X64570428Y-88232161D01*
X64570428Y-88159590D01*
X64606714Y-88087018D01*
X64643000Y-88050732D01*
X64715571Y-88014447D01*
X64860714Y-87978161D01*
X64933285Y-87941875D01*
X64969571Y-87905590D01*
X65005857Y-87833018D01*
X65005857Y-87760447D01*
X64969571Y-87687875D01*
X64933285Y-87651590D01*
X64860714Y-87615304D01*
X64679285Y-87615304D01*
X64570428Y-87651590D01*
X63989857Y-87978161D02*
X63881000Y-88014447D01*
X63844714Y-88050732D01*
X63808428Y-88123304D01*
X63808428Y-88232161D01*
X63844714Y-88304732D01*
X63881000Y-88341018D01*
X63953571Y-88377304D01*
X64243857Y-88377304D01*
X64243857Y-87615304D01*
X63989857Y-87615304D01*
X63917285Y-87651590D01*
X63881000Y-87687875D01*
X63844714Y-87760447D01*
X63844714Y-87833018D01*
X63881000Y-87905590D01*
X63917285Y-87941875D01*
X63989857Y-87978161D01*
X64243857Y-87978161D01*
X62901285Y-88377304D02*
X62901285Y-87615304D01*
X62647285Y-88159590D01*
X62393285Y-87615304D01*
X62393285Y-88377304D01*
X61921571Y-88377304D02*
X61994142Y-88341018D01*
X62030428Y-88304732D01*
X62066714Y-88232161D01*
X62066714Y-88014447D01*
X62030428Y-87941875D01*
X61994142Y-87905590D01*
X61921571Y-87869304D01*
X61812714Y-87869304D01*
X61740142Y-87905590D01*
X61703857Y-87941875D01*
X61667571Y-88014447D01*
X61667571Y-88232161D01*
X61703857Y-88304732D01*
X61740142Y-88341018D01*
X61812714Y-88377304D01*
X61921571Y-88377304D01*
X61449857Y-87869304D02*
X61159571Y-87869304D01*
X61341000Y-87615304D02*
X61341000Y-88268447D01*
X61304714Y-88341018D01*
X61232142Y-88377304D01*
X61159571Y-88377304D01*
X60796714Y-88377304D02*
X60869285Y-88341018D01*
X60905571Y-88304732D01*
X60941857Y-88232161D01*
X60941857Y-88014447D01*
X60905571Y-87941875D01*
X60869285Y-87905590D01*
X60796714Y-87869304D01*
X60687857Y-87869304D01*
X60615285Y-87905590D01*
X60579000Y-87941875D01*
X60542714Y-88014447D01*
X60542714Y-88232161D01*
X60579000Y-88304732D01*
X60615285Y-88341018D01*
X60687857Y-88377304D01*
X60796714Y-88377304D01*
X60216142Y-88377304D02*
X60216142Y-87869304D01*
X60216142Y-88014447D02*
X60179857Y-87941875D01*
X60143571Y-87905590D01*
X60071000Y-87869304D01*
X59998428Y-87869304D01*
X58329285Y-87978161D02*
X58583285Y-87978161D01*
X58583285Y-88377304D02*
X58583285Y-87615304D01*
X58220428Y-87615304D01*
X58002714Y-87869304D02*
X57821285Y-88377304D01*
X57639857Y-87869304D02*
X57821285Y-88377304D01*
X57893857Y-88558732D01*
X57930142Y-88595018D01*
X58002714Y-88631304D01*
X57349571Y-88377304D02*
X57349571Y-87615304D01*
X57349571Y-87905590D02*
X57277000Y-87869304D01*
X57131857Y-87869304D01*
X57059285Y-87905590D01*
X57023000Y-87941875D01*
X56986714Y-88014447D01*
X56986714Y-88232161D01*
X57023000Y-88304732D01*
X57059285Y-88341018D01*
X57131857Y-88377304D01*
X57277000Y-88377304D01*
X57349571Y-88341018D01*
X56369857Y-88341018D02*
X56442428Y-88377304D01*
X56587571Y-88377304D01*
X56660142Y-88341018D01*
X56696428Y-88268447D01*
X56696428Y-87978161D01*
X56660142Y-87905590D01*
X56587571Y-87869304D01*
X56442428Y-87869304D01*
X56369857Y-87905590D01*
X56333571Y-87978161D01*
X56333571Y-88050732D01*
X56696428Y-88123304D01*
X56007000Y-88377304D02*
X56007000Y-87869304D01*
X56007000Y-88014447D02*
X55970714Y-87941875D01*
X55934428Y-87905590D01*
X55861857Y-87869304D01*
X55789285Y-87869304D01*
X54591857Y-88377304D02*
X54954714Y-88377304D01*
X54954714Y-87615304D01*
X54011285Y-88377304D02*
X54011285Y-87978161D01*
X54047571Y-87905590D01*
X54120142Y-87869304D01*
X54265285Y-87869304D01*
X54337857Y-87905590D01*
X54011285Y-88341018D02*
X54083857Y-88377304D01*
X54265285Y-88377304D01*
X54337857Y-88341018D01*
X54374142Y-88268447D01*
X54374142Y-88195875D01*
X54337857Y-88123304D01*
X54265285Y-88087018D01*
X54083857Y-88087018D01*
X54011285Y-88050732D01*
X53648428Y-88377304D02*
X53648428Y-87615304D01*
X53648428Y-87905590D02*
X53575857Y-87869304D01*
X53430714Y-87869304D01*
X53358142Y-87905590D01*
X53321857Y-87941875D01*
X53285571Y-88014447D01*
X53285571Y-88232161D01*
X53321857Y-88304732D01*
X53358142Y-88341018D01*
X53430714Y-88377304D01*
X53575857Y-88377304D01*
X53648428Y-88341018D01*
X52995285Y-88341018D02*
X52922714Y-88377304D01*
X52777571Y-88377304D01*
X52705000Y-88341018D01*
X52668714Y-88268447D01*
X52668714Y-88232161D01*
X52705000Y-88159590D01*
X52777571Y-88123304D01*
X52886428Y-88123304D01*
X52959000Y-88087018D01*
X52995285Y-88014447D01*
X52995285Y-87978161D01*
X52959000Y-87905590D01*
X52886428Y-87869304D01*
X52777571Y-87869304D01*
X52705000Y-87905590D01*
X51761571Y-88377304D02*
X51761571Y-87615304D01*
X51398714Y-87869304D02*
X51398714Y-88377304D01*
X51398714Y-87941875D02*
X51362428Y-87905590D01*
X51289857Y-87869304D01*
X51181000Y-87869304D01*
X51108428Y-87905590D01*
X51072142Y-87978161D01*
X51072142Y-88377304D01*
X50382714Y-88341018D02*
X50455285Y-88377304D01*
X50600428Y-88377304D01*
X50673000Y-88341018D01*
X50709285Y-88304732D01*
X50745571Y-88232161D01*
X50745571Y-88014447D01*
X50709285Y-87941875D01*
X50673000Y-87905590D01*
X50600428Y-87869304D01*
X50455285Y-87869304D01*
X50382714Y-87905590D01*
X50056142Y-88304732D02*
X50019857Y-88341018D01*
X50056142Y-88377304D01*
X50092428Y-88341018D01*
X50056142Y-88304732D01*
X50056142Y-88377304D01*
X68108285Y-88914695D02*
X68072000Y-88878410D01*
X67999428Y-88842124D01*
X67818000Y-88842124D01*
X67745428Y-88878410D01*
X67709142Y-88914695D01*
X67672857Y-88987267D01*
X67672857Y-89059838D01*
X67709142Y-89168695D01*
X68144571Y-89604124D01*
X67672857Y-89604124D01*
X67201142Y-88842124D02*
X67128571Y-88842124D01*
X67056000Y-88878410D01*
X67019714Y-88914695D01*
X66983428Y-88987267D01*
X66947142Y-89132410D01*
X66947142Y-89313838D01*
X66983428Y-89458981D01*
X67019714Y-89531552D01*
X67056000Y-89567838D01*
X67128571Y-89604124D01*
X67201142Y-89604124D01*
X67273714Y-89567838D01*
X67310000Y-89531552D01*
X67346285Y-89458981D01*
X67382571Y-89313838D01*
X67382571Y-89132410D01*
X67346285Y-88987267D01*
X67310000Y-88914695D01*
X67273714Y-88878410D01*
X67201142Y-88842124D01*
X66221428Y-89604124D02*
X66656857Y-89604124D01*
X66439142Y-89604124D02*
X66439142Y-88842124D01*
X66511714Y-88950981D01*
X66584285Y-89023552D01*
X66656857Y-89059838D01*
X65858571Y-89604124D02*
X65713428Y-89604124D01*
X65640857Y-89567838D01*
X65604571Y-89531552D01*
X65532000Y-89422695D01*
X65495714Y-89277552D01*
X65495714Y-88987267D01*
X65532000Y-88914695D01*
X65568285Y-88878410D01*
X65640857Y-88842124D01*
X65786000Y-88842124D01*
X65858571Y-88878410D01*
X65894857Y-88914695D01*
X65931142Y-88987267D01*
X65931142Y-89168695D01*
X65894857Y-89241267D01*
X65858571Y-89277552D01*
X65786000Y-89313838D01*
X65640857Y-89313838D01*
X65568285Y-89277552D01*
X65532000Y-89241267D01*
X65495714Y-89168695D01*
X64443428Y-88842124D02*
X64370857Y-88842124D01*
X64298285Y-88878410D01*
X64262000Y-88914695D01*
X64225714Y-88987267D01*
X64189428Y-89132410D01*
X64189428Y-89313838D01*
X64225714Y-89458981D01*
X64262000Y-89531552D01*
X64298285Y-89567838D01*
X64370857Y-89604124D01*
X64443428Y-89604124D01*
X64516000Y-89567838D01*
X64552285Y-89531552D01*
X64588571Y-89458981D01*
X64624857Y-89313838D01*
X64624857Y-89132410D01*
X64588571Y-88987267D01*
X64552285Y-88914695D01*
X64516000Y-88878410D01*
X64443428Y-88842124D01*
X63862857Y-89531552D02*
X63826571Y-89567838D01*
X63862857Y-89604124D01*
X63899142Y-89567838D01*
X63862857Y-89531552D01*
X63862857Y-89604124D01*
X63572571Y-88842124D02*
X63100857Y-88842124D01*
X63354857Y-89132410D01*
X63246000Y-89132410D01*
X63173428Y-89168695D01*
X63137142Y-89204981D01*
X63100857Y-89277552D01*
X63100857Y-89458981D01*
X63137142Y-89531552D01*
X63173428Y-89567838D01*
X63246000Y-89604124D01*
X63463714Y-89604124D01*
X63536285Y-89567838D01*
X63572571Y-89531552D01*
X62774285Y-89531552D02*
X62738000Y-89567838D01*
X62774285Y-89604124D01*
X62810571Y-89567838D01*
X62774285Y-89531552D01*
X62774285Y-89604124D01*
X62266285Y-88842124D02*
X62193714Y-88842124D01*
X62121142Y-88878410D01*
X62084857Y-88914695D01*
X62048571Y-88987267D01*
X62012285Y-89132410D01*
X62012285Y-89313838D01*
X62048571Y-89458981D01*
X62084857Y-89531552D01*
X62121142Y-89567838D01*
X62193714Y-89604124D01*
X62266285Y-89604124D01*
X62338857Y-89567838D01*
X62375142Y-89531552D01*
X62411428Y-89458981D01*
X62447714Y-89313838D01*
X62447714Y-89132410D01*
X62411428Y-88987267D01*
X62375142Y-88914695D01*
X62338857Y-88878410D01*
X62266285Y-88842124D01*
X61685714Y-89313838D02*
X61105142Y-89313838D01*
X60415714Y-89604124D02*
X60415714Y-89204981D01*
X60452000Y-89132410D01*
X60524571Y-89096124D01*
X60669714Y-89096124D01*
X60742285Y-89132410D01*
X60415714Y-89567838D02*
X60488285Y-89604124D01*
X60669714Y-89604124D01*
X60742285Y-89567838D01*
X60778571Y-89495267D01*
X60778571Y-89422695D01*
X60742285Y-89350124D01*
X60669714Y-89313838D01*
X60488285Y-89313838D01*
X60415714Y-89277552D01*
X58637714Y-89204981D02*
X58528857Y-89241267D01*
X58492571Y-89277552D01*
X58456285Y-89350124D01*
X58456285Y-89458981D01*
X58492571Y-89531552D01*
X58528857Y-89567838D01*
X58601428Y-89604124D01*
X58891714Y-89604124D01*
X58891714Y-88842124D01*
X58637714Y-88842124D01*
X58565142Y-88878410D01*
X58528857Y-88914695D01*
X58492571Y-88987267D01*
X58492571Y-89059838D01*
X58528857Y-89132410D01*
X58565142Y-89168695D01*
X58637714Y-89204981D01*
X58891714Y-89204981D01*
X57803142Y-89096124D02*
X57803142Y-89604124D01*
X58129714Y-89096124D02*
X58129714Y-89495267D01*
X58093428Y-89567838D01*
X58020857Y-89604124D01*
X57912000Y-89604124D01*
X57839428Y-89567838D01*
X57803142Y-89531552D01*
X57113714Y-89567838D02*
X57186285Y-89604124D01*
X57331428Y-89604124D01*
X57404000Y-89567838D01*
X57440285Y-89531552D01*
X57476571Y-89458981D01*
X57476571Y-89241267D01*
X57440285Y-89168695D01*
X57404000Y-89132410D01*
X57331428Y-89096124D01*
X57186285Y-89096124D01*
X57113714Y-89132410D01*
X56787142Y-89604124D02*
X56787142Y-88842124D01*
X56714571Y-89313838D02*
X56496857Y-89604124D01*
X56496857Y-89096124D02*
X56787142Y-89386410D01*
X55335714Y-89204981D02*
X55226857Y-89241267D01*
X55190571Y-89277552D01*
X55154285Y-89350124D01*
X55154285Y-89458981D01*
X55190571Y-89531552D01*
X55226857Y-89567838D01*
X55299428Y-89604124D01*
X55589714Y-89604124D01*
X55589714Y-88842124D01*
X55335714Y-88842124D01*
X55263142Y-88878410D01*
X55226857Y-88914695D01*
X55190571Y-88987267D01*
X55190571Y-89059838D01*
X55226857Y-89132410D01*
X55263142Y-89168695D01*
X55335714Y-89204981D01*
X55589714Y-89204981D01*
X54718857Y-89604124D02*
X54791428Y-89567838D01*
X54827714Y-89531552D01*
X54864000Y-89458981D01*
X54864000Y-89241267D01*
X54827714Y-89168695D01*
X54791428Y-89132410D01*
X54718857Y-89096124D01*
X54610000Y-89096124D01*
X54537428Y-89132410D01*
X54501142Y-89168695D01*
X54464857Y-89241267D01*
X54464857Y-89458981D01*
X54501142Y-89531552D01*
X54537428Y-89567838D01*
X54610000Y-89604124D01*
X54718857Y-89604124D01*
X54029428Y-89604124D02*
X54102000Y-89567838D01*
X54138285Y-89531552D01*
X54174571Y-89458981D01*
X54174571Y-89241267D01*
X54138285Y-89168695D01*
X54102000Y-89132410D01*
X54029428Y-89096124D01*
X53920571Y-89096124D01*
X53848000Y-89132410D01*
X53811714Y-89168695D01*
X53775428Y-89241267D01*
X53775428Y-89458981D01*
X53811714Y-89531552D01*
X53848000Y-89567838D01*
X53920571Y-89604124D01*
X54029428Y-89604124D01*
X53485142Y-89567838D02*
X53412571Y-89604124D01*
X53267428Y-89604124D01*
X53194857Y-89567838D01*
X53158571Y-89495267D01*
X53158571Y-89458981D01*
X53194857Y-89386410D01*
X53267428Y-89350124D01*
X53376285Y-89350124D01*
X53448857Y-89313838D01*
X53485142Y-89241267D01*
X53485142Y-89204981D01*
X53448857Y-89132410D01*
X53376285Y-89096124D01*
X53267428Y-89096124D01*
X53194857Y-89132410D01*
X52940857Y-89096124D02*
X52650571Y-89096124D01*
X52832000Y-88842124D02*
X52832000Y-89495267D01*
X52795714Y-89567838D01*
X52723142Y-89604124D01*
X52650571Y-89604124D01*
X51380571Y-89531552D02*
X51416857Y-89567838D01*
X51525714Y-89604124D01*
X51598285Y-89604124D01*
X51707142Y-89567838D01*
X51779714Y-89495267D01*
X51816000Y-89422695D01*
X51852285Y-89277552D01*
X51852285Y-89168695D01*
X51816000Y-89023552D01*
X51779714Y-88950981D01*
X51707142Y-88878410D01*
X51598285Y-88842124D01*
X51525714Y-88842124D01*
X51416857Y-88878410D01*
X51380571Y-88914695D01*
X51054000Y-89604124D02*
X51054000Y-88842124D01*
X50727428Y-89604124D02*
X50727428Y-89204981D01*
X50763714Y-89132410D01*
X50836285Y-89096124D01*
X50945142Y-89096124D01*
X51017714Y-89132410D01*
X51054000Y-89168695D01*
X50038000Y-89604124D02*
X50038000Y-89204981D01*
X50074285Y-89132410D01*
X50146857Y-89096124D01*
X50292000Y-89096124D01*
X50364571Y-89132410D01*
X50038000Y-89567838D02*
X50110571Y-89604124D01*
X50292000Y-89604124D01*
X50364571Y-89567838D01*
X50400857Y-89495267D01*
X50400857Y-89422695D01*
X50364571Y-89350124D01*
X50292000Y-89313838D01*
X50110571Y-89313838D01*
X50038000Y-89277552D01*
X49675142Y-89604124D02*
X49675142Y-89096124D01*
X49675142Y-89241267D02*
X49638857Y-89168695D01*
X49602571Y-89132410D01*
X49530000Y-89096124D01*
X49457428Y-89096124D01*
X48876857Y-89096124D02*
X48876857Y-89712981D01*
X48913142Y-89785552D01*
X48949428Y-89821838D01*
X49022000Y-89858124D01*
X49130857Y-89858124D01*
X49203428Y-89821838D01*
X48876857Y-89567838D02*
X48949428Y-89604124D01*
X49094571Y-89604124D01*
X49167142Y-89567838D01*
X49203428Y-89531552D01*
X49239714Y-89458981D01*
X49239714Y-89241267D01*
X49203428Y-89168695D01*
X49167142Y-89132410D01*
X49094571Y-89096124D01*
X48949428Y-89096124D01*
X48876857Y-89132410D01*
X48223714Y-89567838D02*
X48296285Y-89604124D01*
X48441428Y-89604124D01*
X48514000Y-89567838D01*
X48550285Y-89495267D01*
X48550285Y-89204981D01*
X48514000Y-89132410D01*
X48441428Y-89096124D01*
X48296285Y-89096124D01*
X48223714Y-89132410D01*
X48187428Y-89204981D01*
X48187428Y-89277552D01*
X48550285Y-89350124D01*
X47860857Y-89604124D02*
X47860857Y-89096124D01*
X47860857Y-89241267D02*
X47824571Y-89168695D01*
X47788285Y-89132410D01*
X47715714Y-89096124D01*
X47643142Y-89096124D01*
D10*
X102616000Y-92202000D02*
X102616000Y-102870000D01*
X83693000Y-102870000D02*
X83693000Y-88900000D01*
X110871000Y-94996000D02*
X83693000Y-94996000D01*
X110871000Y-92202000D02*
X83693000Y-92202000D01*
X110871000Y-102870000D02*
X83693000Y-102870000D01*
X110871000Y-97790000D02*
X83693000Y-97790000D01*
X110871000Y-88900000D02*
X110871000Y-102870000D01*
X110871000Y-100584000D02*
X83693000Y-100584000D01*
X83693000Y-88900000D02*
X110871000Y-88900000D01*
X106426000Y-92202000D02*
X106426000Y-102870000D01*
D11*
X108956021Y-92030005D02*
X109028592Y-91993720D01*
X109101164Y-91921148D01*
X109210021Y-91812291D01*
X109282592Y-91776005D01*
X109355164Y-91776005D01*
X109318878Y-91957434D02*
X109391450Y-91921148D01*
X109464021Y-91848577D01*
X109500307Y-91703434D01*
X109500307Y-91449434D01*
X109464021Y-91304291D01*
X109391450Y-91231720D01*
X109318878Y-91195434D01*
X109173735Y-91195434D01*
X109101164Y-91231720D01*
X109028592Y-91304291D01*
X108992307Y-91449434D01*
X108992307Y-91703434D01*
X109028592Y-91848577D01*
X109101164Y-91921148D01*
X109173735Y-91957434D01*
X109318878Y-91957434D01*
X108702021Y-91739720D02*
X108339164Y-91739720D01*
X108774592Y-91957434D02*
X108520592Y-91195434D01*
X108266592Y-91957434D01*
X108012592Y-91884862D02*
X107976307Y-91921148D01*
X108012592Y-91957434D01*
X108048878Y-91921148D01*
X108012592Y-91884862D01*
X108012592Y-91957434D01*
X108012592Y-91485720D02*
X107976307Y-91522005D01*
X108012592Y-91558291D01*
X108048878Y-91522005D01*
X108012592Y-91485720D01*
X108012592Y-91558291D01*
X105908021Y-91957434D02*
X105908021Y-91195434D01*
X105617735Y-91195434D01*
X105545164Y-91231720D01*
X105508878Y-91268005D01*
X105472592Y-91340577D01*
X105472592Y-91449434D01*
X105508878Y-91522005D01*
X105545164Y-91558291D01*
X105617735Y-91594577D01*
X105908021Y-91594577D01*
X105182307Y-91739720D02*
X104819449Y-91739720D01*
X105254878Y-91957434D02*
X105000878Y-91195434D01*
X104746878Y-91957434D01*
X104529164Y-91921148D02*
X104420307Y-91957434D01*
X104238878Y-91957434D01*
X104166307Y-91921148D01*
X104130021Y-91884862D01*
X104093735Y-91812291D01*
X104093735Y-91739720D01*
X104130021Y-91667148D01*
X104166307Y-91630862D01*
X104238878Y-91594577D01*
X104384021Y-91558291D01*
X104456592Y-91522005D01*
X104492878Y-91485720D01*
X104529164Y-91413148D01*
X104529164Y-91340577D01*
X104492878Y-91268005D01*
X104456592Y-91231720D01*
X104384021Y-91195434D01*
X104202592Y-91195434D01*
X104093735Y-91231720D01*
X103803450Y-91921148D02*
X103694592Y-91957434D01*
X103513164Y-91957434D01*
X103440592Y-91921148D01*
X103404307Y-91884862D01*
X103368021Y-91812291D01*
X103368021Y-91739720D01*
X103404307Y-91667148D01*
X103440592Y-91630862D01*
X103513164Y-91594577D01*
X103658307Y-91558291D01*
X103730878Y-91522005D01*
X103767164Y-91485720D01*
X103803450Y-91413148D01*
X103803450Y-91340577D01*
X103767164Y-91268005D01*
X103730878Y-91231720D01*
X103658307Y-91195434D01*
X103476878Y-91195434D01*
X103368021Y-91231720D01*
X101626307Y-91558291D02*
X101880307Y-91558291D01*
X101880307Y-91957434D02*
X101880307Y-91195434D01*
X101517449Y-91195434D01*
X101263449Y-91739720D02*
X100900592Y-91739720D01*
X101336021Y-91957434D02*
X101082021Y-91195434D01*
X100828021Y-91957434D01*
X100574021Y-91957434D02*
X100574021Y-91195434D01*
X99848307Y-91957434D02*
X100211164Y-91957434D01*
X100211164Y-91195434D01*
X99594307Y-91195434D02*
X99594307Y-91812291D01*
X99558021Y-91884862D01*
X99521735Y-91921148D01*
X99449164Y-91957434D01*
X99304021Y-91957434D01*
X99231449Y-91921148D01*
X99195164Y-91884862D01*
X99158878Y-91812291D01*
X99158878Y-91195434D01*
X98360592Y-91957434D02*
X98614592Y-91594577D01*
X98796021Y-91957434D02*
X98796021Y-91195434D01*
X98505735Y-91195434D01*
X98433164Y-91231720D01*
X98396878Y-91268005D01*
X98360592Y-91340577D01*
X98360592Y-91449434D01*
X98396878Y-91522005D01*
X98433164Y-91558291D01*
X98505735Y-91594577D01*
X98796021Y-91594577D01*
X98034021Y-91558291D02*
X97780021Y-91558291D01*
X97671164Y-91957434D02*
X98034021Y-91957434D01*
X98034021Y-91195434D01*
X97671164Y-91195434D01*
X96764021Y-91957434D02*
X96764021Y-91195434D01*
X96582592Y-91195434D01*
X96473735Y-91231720D01*
X96401164Y-91304291D01*
X96364878Y-91376862D01*
X96328592Y-91522005D01*
X96328592Y-91630862D01*
X96364878Y-91776005D01*
X96401164Y-91848577D01*
X96473735Y-91921148D01*
X96582592Y-91957434D01*
X96764021Y-91957434D01*
X96002021Y-91558291D02*
X95748021Y-91558291D01*
X95639164Y-91957434D02*
X96002021Y-91957434D01*
X96002021Y-91195434D01*
X95639164Y-91195434D01*
X95348878Y-91921148D02*
X95240021Y-91957434D01*
X95058592Y-91957434D01*
X94986021Y-91921148D01*
X94949735Y-91884862D01*
X94913449Y-91812291D01*
X94913449Y-91739720D01*
X94949735Y-91667148D01*
X94986021Y-91630862D01*
X95058592Y-91594577D01*
X95203735Y-91558291D01*
X95276307Y-91522005D01*
X95312592Y-91485720D01*
X95348878Y-91413148D01*
X95348878Y-91340577D01*
X95312592Y-91268005D01*
X95276307Y-91231720D01*
X95203735Y-91195434D01*
X95022307Y-91195434D01*
X94913449Y-91231720D01*
X94151449Y-91884862D02*
X94187735Y-91921148D01*
X94296592Y-91957434D01*
X94369164Y-91957434D01*
X94478021Y-91921148D01*
X94550592Y-91848577D01*
X94586878Y-91776005D01*
X94623164Y-91630862D01*
X94623164Y-91522005D01*
X94586878Y-91376862D01*
X94550592Y-91304291D01*
X94478021Y-91231720D01*
X94369164Y-91195434D01*
X94296592Y-91195434D01*
X94187735Y-91231720D01*
X94151449Y-91268005D01*
X109210021Y-94011931D02*
X109101164Y-94048217D01*
X109064878Y-94084502D01*
X109028592Y-94157074D01*
X109028592Y-94265931D01*
X109064878Y-94338502D01*
X109101164Y-94374788D01*
X109173735Y-94411074D01*
X109464021Y-94411074D01*
X109464021Y-93649074D01*
X109210021Y-93649074D01*
X109137450Y-93685360D01*
X109101164Y-93721645D01*
X109064878Y-93794217D01*
X109064878Y-93866788D01*
X109101164Y-93939360D01*
X109137450Y-93975645D01*
X109210021Y-94011931D01*
X109464021Y-94011931D01*
X108266592Y-94411074D02*
X108520592Y-94048217D01*
X108702021Y-94411074D02*
X108702021Y-93649074D01*
X108411735Y-93649074D01*
X108339164Y-93685360D01*
X108302878Y-93721645D01*
X108266592Y-93794217D01*
X108266592Y-93903074D01*
X108302878Y-93975645D01*
X108339164Y-94011931D01*
X108411735Y-94048217D01*
X108702021Y-94048217D01*
X107940021Y-94411074D02*
X107940021Y-93649074D01*
X107758592Y-93649074D01*
X107649735Y-93685360D01*
X107577164Y-93757931D01*
X107540878Y-93830502D01*
X107504592Y-93975645D01*
X107504592Y-94084502D01*
X107540878Y-94229645D01*
X107577164Y-94302217D01*
X107649735Y-94374788D01*
X107758592Y-94411074D01*
X107940021Y-94411074D01*
X109464021Y-96864714D02*
X109464021Y-96102714D01*
X109173735Y-96102714D01*
X109101164Y-96139000D01*
X109064878Y-96175285D01*
X109028592Y-96247857D01*
X109028592Y-96356714D01*
X109064878Y-96429285D01*
X109101164Y-96465571D01*
X109173735Y-96501857D01*
X109464021Y-96501857D01*
X108339164Y-96864714D02*
X108702021Y-96864714D01*
X108702021Y-96102714D01*
X107649735Y-96792142D02*
X107686021Y-96828428D01*
X107794878Y-96864714D01*
X107867450Y-96864714D01*
X107976307Y-96828428D01*
X108048878Y-96755857D01*
X108085164Y-96683285D01*
X108121450Y-96538142D01*
X108121450Y-96429285D01*
X108085164Y-96284142D01*
X108048878Y-96211571D01*
X107976307Y-96139000D01*
X107867450Y-96102714D01*
X107794878Y-96102714D01*
X107686021Y-96139000D01*
X107649735Y-96175285D01*
X109464021Y-99318354D02*
X109464021Y-98556354D01*
X109173735Y-98556354D01*
X109101164Y-98592640D01*
X109064878Y-98628925D01*
X109028592Y-98701497D01*
X109028592Y-98810354D01*
X109064878Y-98882925D01*
X109101164Y-98919211D01*
X109173735Y-98955497D01*
X109464021Y-98955497D01*
X108774592Y-98556354D02*
X108593164Y-99318354D01*
X108448021Y-98774068D01*
X108302878Y-99318354D01*
X108121450Y-98556354D01*
X107395735Y-99318354D02*
X107649735Y-98955497D01*
X107831164Y-99318354D02*
X107831164Y-98556354D01*
X107540878Y-98556354D01*
X107468307Y-98592640D01*
X107432021Y-98628925D01*
X107395735Y-98701497D01*
X107395735Y-98810354D01*
X107432021Y-98882925D01*
X107468307Y-98919211D01*
X107540878Y-98955497D01*
X107831164Y-98955497D01*
X109210021Y-101372851D02*
X109464021Y-101372851D01*
X109464021Y-101771994D02*
X109464021Y-101009994D01*
X109101164Y-101009994D01*
X108810878Y-101771994D02*
X108810878Y-101009994D01*
X108012592Y-101771994D02*
X108266592Y-101409137D01*
X108448021Y-101771994D02*
X108448021Y-101009994D01*
X108157735Y-101009994D01*
X108085164Y-101046280D01*
X108048878Y-101082565D01*
X108012592Y-101155137D01*
X108012592Y-101263994D01*
X108048878Y-101336565D01*
X108085164Y-101372851D01*
X108157735Y-101409137D01*
X108448021Y-101409137D01*
X107686021Y-101771994D02*
X107686021Y-101009994D01*
X107432021Y-101554280D01*
X107178021Y-101009994D01*
X107178021Y-101771994D01*
X108040714Y-86345304D02*
X108040714Y-86962161D01*
X108004428Y-87034732D01*
X107968142Y-87071018D01*
X107895571Y-87107304D01*
X107750428Y-87107304D01*
X107677857Y-87071018D01*
X107641571Y-87034732D01*
X107605285Y-86962161D01*
X107605285Y-86345304D01*
X107278714Y-87071018D02*
X107169857Y-87107304D01*
X106988428Y-87107304D01*
X106915857Y-87071018D01*
X106879571Y-87034732D01*
X106843285Y-86962161D01*
X106843285Y-86889590D01*
X106879571Y-86817018D01*
X106915857Y-86780732D01*
X106988428Y-86744447D01*
X107133571Y-86708161D01*
X107206142Y-86671875D01*
X107242428Y-86635590D01*
X107278714Y-86563018D01*
X107278714Y-86490447D01*
X107242428Y-86417875D01*
X107206142Y-86381590D01*
X107133571Y-86345304D01*
X106952142Y-86345304D01*
X106843285Y-86381590D01*
X106262714Y-86708161D02*
X106153857Y-86744447D01*
X106117571Y-86780732D01*
X106081285Y-86853304D01*
X106081285Y-86962161D01*
X106117571Y-87034732D01*
X106153857Y-87071018D01*
X106226428Y-87107304D01*
X106516714Y-87107304D01*
X106516714Y-86345304D01*
X106262714Y-86345304D01*
X106190142Y-86381590D01*
X106153857Y-86417875D01*
X106117571Y-86490447D01*
X106117571Y-86563018D01*
X106153857Y-86635590D01*
X106190142Y-86671875D01*
X106262714Y-86708161D01*
X106516714Y-86708161D01*
X105174142Y-87107304D02*
X105174142Y-86345304D01*
X104920142Y-86889590D01*
X104666142Y-86345304D01*
X104666142Y-87107304D01*
X104194428Y-87107304D02*
X104267000Y-87071018D01*
X104303285Y-87034732D01*
X104339571Y-86962161D01*
X104339571Y-86744447D01*
X104303285Y-86671875D01*
X104267000Y-86635590D01*
X104194428Y-86599304D01*
X104085571Y-86599304D01*
X104013000Y-86635590D01*
X103976714Y-86671875D01*
X103940428Y-86744447D01*
X103940428Y-86962161D01*
X103976714Y-87034732D01*
X104013000Y-87071018D01*
X104085571Y-87107304D01*
X104194428Y-87107304D01*
X103722714Y-86599304D02*
X103432428Y-86599304D01*
X103613857Y-86345304D02*
X103613857Y-86998447D01*
X103577571Y-87071018D01*
X103505000Y-87107304D01*
X103432428Y-87107304D01*
X103069571Y-87107304D02*
X103142142Y-87071018D01*
X103178428Y-87034732D01*
X103214714Y-86962161D01*
X103214714Y-86744447D01*
X103178428Y-86671875D01*
X103142142Y-86635590D01*
X103069571Y-86599304D01*
X102960714Y-86599304D01*
X102888142Y-86635590D01*
X102851857Y-86671875D01*
X102815571Y-86744447D01*
X102815571Y-86962161D01*
X102851857Y-87034732D01*
X102888142Y-87071018D01*
X102960714Y-87107304D01*
X103069571Y-87107304D01*
X102489000Y-87107304D02*
X102489000Y-86599304D01*
X102489000Y-86744447D02*
X102452714Y-86671875D01*
X102416428Y-86635590D01*
X102343857Y-86599304D01*
X102271285Y-86599304D01*
X98860428Y-86708161D02*
X99114428Y-86708161D01*
X99114428Y-87107304D02*
X99114428Y-86345304D01*
X98751571Y-86345304D01*
X98533857Y-86599304D02*
X98352428Y-87107304D01*
X98171000Y-86599304D02*
X98352428Y-87107304D01*
X98425000Y-87288732D01*
X98461285Y-87325018D01*
X98533857Y-87361304D01*
X97880714Y-87107304D02*
X97880714Y-86345304D01*
X97880714Y-86635590D02*
X97808142Y-86599304D01*
X97663000Y-86599304D01*
X97590428Y-86635590D01*
X97554142Y-86671875D01*
X97517857Y-86744447D01*
X97517857Y-86962161D01*
X97554142Y-87034732D01*
X97590428Y-87071018D01*
X97663000Y-87107304D01*
X97808142Y-87107304D01*
X97880714Y-87071018D01*
X96901000Y-87071018D02*
X96973571Y-87107304D01*
X97118714Y-87107304D01*
X97191285Y-87071018D01*
X97227571Y-86998447D01*
X97227571Y-86708161D01*
X97191285Y-86635590D01*
X97118714Y-86599304D01*
X96973571Y-86599304D01*
X96901000Y-86635590D01*
X96864714Y-86708161D01*
X96864714Y-86780732D01*
X97227571Y-86853304D01*
X96538142Y-87107304D02*
X96538142Y-86599304D01*
X96538142Y-86744447D02*
X96501857Y-86671875D01*
X96465571Y-86635590D01*
X96393000Y-86599304D01*
X96320428Y-86599304D01*
X95123000Y-87107304D02*
X95485857Y-87107304D01*
X95485857Y-86345304D01*
X94542428Y-87107304D02*
X94542428Y-86708161D01*
X94578714Y-86635590D01*
X94651285Y-86599304D01*
X94796428Y-86599304D01*
X94869000Y-86635590D01*
X94542428Y-87071018D02*
X94615000Y-87107304D01*
X94796428Y-87107304D01*
X94869000Y-87071018D01*
X94905285Y-86998447D01*
X94905285Y-86925875D01*
X94869000Y-86853304D01*
X94796428Y-86817018D01*
X94615000Y-86817018D01*
X94542428Y-86780732D01*
X94179571Y-87107304D02*
X94179571Y-86345304D01*
X94179571Y-86635590D02*
X94107000Y-86599304D01*
X93961857Y-86599304D01*
X93889285Y-86635590D01*
X93853000Y-86671875D01*
X93816714Y-86744447D01*
X93816714Y-86962161D01*
X93853000Y-87034732D01*
X93889285Y-87071018D01*
X93961857Y-87107304D01*
X94107000Y-87107304D01*
X94179571Y-87071018D01*
X93526428Y-87071018D02*
X93453857Y-87107304D01*
X93308714Y-87107304D01*
X93236142Y-87071018D01*
X93199857Y-86998447D01*
X93199857Y-86962161D01*
X93236142Y-86889590D01*
X93308714Y-86853304D01*
X93417571Y-86853304D01*
X93490142Y-86817018D01*
X93526428Y-86744447D01*
X93526428Y-86708161D01*
X93490142Y-86635590D01*
X93417571Y-86599304D01*
X93308714Y-86599304D01*
X93236142Y-86635590D01*
X92292714Y-87107304D02*
X92292714Y-86345304D01*
X91929857Y-86599304D02*
X91929857Y-87107304D01*
X91929857Y-86671875D02*
X91893571Y-86635590D01*
X91821000Y-86599304D01*
X91712142Y-86599304D01*
X91639571Y-86635590D01*
X91603285Y-86708161D01*
X91603285Y-87107304D01*
X90913857Y-87071018D02*
X90986428Y-87107304D01*
X91131571Y-87107304D01*
X91204142Y-87071018D01*
X91240428Y-87034732D01*
X91276714Y-86962161D01*
X91276714Y-86744447D01*
X91240428Y-86671875D01*
X91204142Y-86635590D01*
X91131571Y-86599304D01*
X90986428Y-86599304D01*
X90913857Y-86635590D01*
X90587285Y-87034732D02*
X90551000Y-87071018D01*
X90587285Y-87107304D01*
X90623571Y-87071018D01*
X90587285Y-87034732D01*
X90587285Y-87107304D01*
X108349142Y-87644695D02*
X108312857Y-87608410D01*
X108240285Y-87572124D01*
X108058857Y-87572124D01*
X107986285Y-87608410D01*
X107950000Y-87644695D01*
X107913714Y-87717267D01*
X107913714Y-87789838D01*
X107950000Y-87898695D01*
X108385428Y-88334124D01*
X107913714Y-88334124D01*
X107442000Y-87572124D02*
X107369428Y-87572124D01*
X107296857Y-87608410D01*
X107260571Y-87644695D01*
X107224285Y-87717267D01*
X107188000Y-87862410D01*
X107188000Y-88043838D01*
X107224285Y-88188981D01*
X107260571Y-88261552D01*
X107296857Y-88297838D01*
X107369428Y-88334124D01*
X107442000Y-88334124D01*
X107514571Y-88297838D01*
X107550857Y-88261552D01*
X107587142Y-88188981D01*
X107623428Y-88043838D01*
X107623428Y-87862410D01*
X107587142Y-87717267D01*
X107550857Y-87644695D01*
X107514571Y-87608410D01*
X107442000Y-87572124D01*
X106462285Y-88334124D02*
X106897714Y-88334124D01*
X106680000Y-88334124D02*
X106680000Y-87572124D01*
X106752571Y-87680981D01*
X106825142Y-87753552D01*
X106897714Y-87789838D01*
X106099428Y-88334124D02*
X105954285Y-88334124D01*
X105881714Y-88297838D01*
X105845428Y-88261552D01*
X105772857Y-88152695D01*
X105736571Y-88007552D01*
X105736571Y-87717267D01*
X105772857Y-87644695D01*
X105809142Y-87608410D01*
X105881714Y-87572124D01*
X106026857Y-87572124D01*
X106099428Y-87608410D01*
X106135714Y-87644695D01*
X106172000Y-87717267D01*
X106172000Y-87898695D01*
X106135714Y-87971267D01*
X106099428Y-88007552D01*
X106026857Y-88043838D01*
X105881714Y-88043838D01*
X105809142Y-88007552D01*
X105772857Y-87971267D01*
X105736571Y-87898695D01*
X104684285Y-87572124D02*
X104611714Y-87572124D01*
X104539142Y-87608410D01*
X104502857Y-87644695D01*
X104466571Y-87717267D01*
X104430285Y-87862410D01*
X104430285Y-88043838D01*
X104466571Y-88188981D01*
X104502857Y-88261552D01*
X104539142Y-88297838D01*
X104611714Y-88334124D01*
X104684285Y-88334124D01*
X104756857Y-88297838D01*
X104793142Y-88261552D01*
X104829428Y-88188981D01*
X104865714Y-88043838D01*
X104865714Y-87862410D01*
X104829428Y-87717267D01*
X104793142Y-87644695D01*
X104756857Y-87608410D01*
X104684285Y-87572124D01*
X104103714Y-88261552D02*
X104067428Y-88297838D01*
X104103714Y-88334124D01*
X104140000Y-88297838D01*
X104103714Y-88261552D01*
X104103714Y-88334124D01*
X103813428Y-87572124D02*
X103341714Y-87572124D01*
X103595714Y-87862410D01*
X103486857Y-87862410D01*
X103414285Y-87898695D01*
X103378000Y-87934981D01*
X103341714Y-88007552D01*
X103341714Y-88188981D01*
X103378000Y-88261552D01*
X103414285Y-88297838D01*
X103486857Y-88334124D01*
X103704571Y-88334124D01*
X103777142Y-88297838D01*
X103813428Y-88261552D01*
X103015142Y-88261552D02*
X102978857Y-88297838D01*
X103015142Y-88334124D01*
X103051428Y-88297838D01*
X103015142Y-88261552D01*
X103015142Y-88334124D01*
X102507142Y-87572124D02*
X102434571Y-87572124D01*
X102362000Y-87608410D01*
X102325714Y-87644695D01*
X102289428Y-87717267D01*
X102253142Y-87862410D01*
X102253142Y-88043838D01*
X102289428Y-88188981D01*
X102325714Y-88261552D01*
X102362000Y-88297838D01*
X102434571Y-88334124D01*
X102507142Y-88334124D01*
X102579714Y-88297838D01*
X102616000Y-88261552D01*
X102652285Y-88188981D01*
X102688571Y-88043838D01*
X102688571Y-87862410D01*
X102652285Y-87717267D01*
X102616000Y-87644695D01*
X102579714Y-87608410D01*
X102507142Y-87572124D01*
X101926571Y-88043838D02*
X101346000Y-88043838D01*
X100656571Y-88334124D02*
X100656571Y-87934981D01*
X100692857Y-87862410D01*
X100765428Y-87826124D01*
X100910571Y-87826124D01*
X100983142Y-87862410D01*
X100656571Y-88297838D02*
X100729142Y-88334124D01*
X100910571Y-88334124D01*
X100983142Y-88297838D01*
X101019428Y-88225267D01*
X101019428Y-88152695D01*
X100983142Y-88080124D01*
X100910571Y-88043838D01*
X100729142Y-88043838D01*
X100656571Y-88007552D01*
X99132571Y-87572124D02*
X99132571Y-88188981D01*
X99096285Y-88261552D01*
X99060000Y-88297838D01*
X98987428Y-88334124D01*
X98842285Y-88334124D01*
X98769714Y-88297838D01*
X98733428Y-88261552D01*
X98697142Y-88188981D01*
X98697142Y-87572124D01*
X98370571Y-88297838D02*
X98261714Y-88334124D01*
X98080285Y-88334124D01*
X98007714Y-88297838D01*
X97971428Y-88261552D01*
X97935142Y-88188981D01*
X97935142Y-88116410D01*
X97971428Y-88043838D01*
X98007714Y-88007552D01*
X98080285Y-87971267D01*
X98225428Y-87934981D01*
X98298000Y-87898695D01*
X98334285Y-87862410D01*
X98370571Y-87789838D01*
X98370571Y-87717267D01*
X98334285Y-87644695D01*
X98298000Y-87608410D01*
X98225428Y-87572124D01*
X98044000Y-87572124D01*
X97935142Y-87608410D01*
X97354571Y-87934981D02*
X97245714Y-87971267D01*
X97209428Y-88007552D01*
X97173142Y-88080124D01*
X97173142Y-88188981D01*
X97209428Y-88261552D01*
X97245714Y-88297838D01*
X97318285Y-88334124D01*
X97608571Y-88334124D01*
X97608571Y-87572124D01*
X97354571Y-87572124D01*
X97282000Y-87608410D01*
X97245714Y-87644695D01*
X97209428Y-87717267D01*
X97209428Y-87789838D01*
X97245714Y-87862410D01*
X97282000Y-87898695D01*
X97354571Y-87934981D01*
X97608571Y-87934981D01*
X96266000Y-88334124D02*
X96266000Y-87572124D01*
X95975714Y-87572124D01*
X95903142Y-87608410D01*
X95866857Y-87644695D01*
X95830571Y-87717267D01*
X95830571Y-87826124D01*
X95866857Y-87898695D01*
X95903142Y-87934981D01*
X95975714Y-87971267D01*
X96266000Y-87971267D01*
X95504000Y-88334124D02*
X95504000Y-87572124D01*
X95322571Y-87572124D01*
X95213714Y-87608410D01*
X95141142Y-87680981D01*
X95104857Y-87753552D01*
X95068571Y-87898695D01*
X95068571Y-88007552D01*
X95104857Y-88152695D01*
X95141142Y-88225267D01*
X95213714Y-88297838D01*
X95322571Y-88334124D01*
X95504000Y-88334124D01*
X93834857Y-88334124D02*
X93834857Y-87934981D01*
X93871142Y-87862410D01*
X93943714Y-87826124D01*
X94088857Y-87826124D01*
X94161428Y-87862410D01*
X93834857Y-88297838D02*
X93907428Y-88334124D01*
X94088857Y-88334124D01*
X94161428Y-88297838D01*
X94197714Y-88225267D01*
X94197714Y-88152695D01*
X94161428Y-88080124D01*
X94088857Y-88043838D01*
X93907428Y-88043838D01*
X93834857Y-88007552D01*
X93472000Y-87826124D02*
X93472000Y-88334124D01*
X93472000Y-87898695D02*
X93435714Y-87862410D01*
X93363142Y-87826124D01*
X93254285Y-87826124D01*
X93181714Y-87862410D01*
X93145428Y-87934981D01*
X93145428Y-88334124D01*
X92456000Y-88334124D02*
X92456000Y-87572124D01*
X92456000Y-88297838D02*
X92528571Y-88334124D01*
X92673714Y-88334124D01*
X92746285Y-88297838D01*
X92782571Y-88261552D01*
X92818857Y-88188981D01*
X92818857Y-87971267D01*
X92782571Y-87898695D01*
X92746285Y-87862410D01*
X92673714Y-87826124D01*
X92528571Y-87826124D01*
X92456000Y-87862410D01*
X91512571Y-87572124D02*
X91512571Y-88188981D01*
X91476285Y-88261552D01*
X91440000Y-88297838D01*
X91367428Y-88334124D01*
X91222285Y-88334124D01*
X91149714Y-88297838D01*
X91113428Y-88261552D01*
X91077142Y-88188981D01*
X91077142Y-87572124D01*
X90278857Y-88261552D02*
X90315142Y-88297838D01*
X90424000Y-88334124D01*
X90496571Y-88334124D01*
X90605428Y-88297838D01*
X90678000Y-88225267D01*
X90714285Y-88152695D01*
X90750571Y-88007552D01*
X90750571Y-87898695D01*
X90714285Y-87753552D01*
X90678000Y-87680981D01*
X90605428Y-87608410D01*
X90496571Y-87572124D01*
X90424000Y-87572124D01*
X90315142Y-87608410D01*
X90278857Y-87644695D01*
D10*
X102616000Y-119126000D02*
X102616000Y-129794000D01*
X83693000Y-129794000D02*
X83693000Y-115824000D01*
X110871000Y-121920000D02*
X83693000Y-121920000D01*
X110871000Y-119126000D02*
X83693000Y-119126000D01*
X110871000Y-129794000D02*
X83693000Y-129794000D01*
X110871000Y-124714000D02*
X83693000Y-124714000D01*
X110871000Y-115824000D02*
X110871000Y-129794000D01*
X110871000Y-127508000D02*
X83693000Y-127508000D01*
X83693000Y-115824000D02*
X110871000Y-115824000D01*
X106426000Y-119126000D02*
X106426000Y-129794000D01*
D11*
X108956021Y-118954005D02*
X109028592Y-118917720D01*
X109101164Y-118845148D01*
X109210021Y-118736291D01*
X109282592Y-118700005D01*
X109355164Y-118700005D01*
X109318878Y-118881434D02*
X109391450Y-118845148D01*
X109464021Y-118772577D01*
X109500307Y-118627434D01*
X109500307Y-118373434D01*
X109464021Y-118228291D01*
X109391450Y-118155720D01*
X109318878Y-118119434D01*
X109173735Y-118119434D01*
X109101164Y-118155720D01*
X109028592Y-118228291D01*
X108992307Y-118373434D01*
X108992307Y-118627434D01*
X109028592Y-118772577D01*
X109101164Y-118845148D01*
X109173735Y-118881434D01*
X109318878Y-118881434D01*
X108702021Y-118663720D02*
X108339164Y-118663720D01*
X108774592Y-118881434D02*
X108520592Y-118119434D01*
X108266592Y-118881434D01*
X108012592Y-118808862D02*
X107976307Y-118845148D01*
X108012592Y-118881434D01*
X108048878Y-118845148D01*
X108012592Y-118808862D01*
X108012592Y-118881434D01*
X108012592Y-118409720D02*
X107976307Y-118446005D01*
X108012592Y-118482291D01*
X108048878Y-118446005D01*
X108012592Y-118409720D01*
X108012592Y-118482291D01*
X105908021Y-118881434D02*
X105908021Y-118119434D01*
X105617735Y-118119434D01*
X105545164Y-118155720D01*
X105508878Y-118192005D01*
X105472592Y-118264577D01*
X105472592Y-118373434D01*
X105508878Y-118446005D01*
X105545164Y-118482291D01*
X105617735Y-118518577D01*
X105908021Y-118518577D01*
X105182307Y-118663720D02*
X104819449Y-118663720D01*
X105254878Y-118881434D02*
X105000878Y-118119434D01*
X104746878Y-118881434D01*
X104529164Y-118845148D02*
X104420307Y-118881434D01*
X104238878Y-118881434D01*
X104166307Y-118845148D01*
X104130021Y-118808862D01*
X104093735Y-118736291D01*
X104093735Y-118663720D01*
X104130021Y-118591148D01*
X104166307Y-118554862D01*
X104238878Y-118518577D01*
X104384021Y-118482291D01*
X104456592Y-118446005D01*
X104492878Y-118409720D01*
X104529164Y-118337148D01*
X104529164Y-118264577D01*
X104492878Y-118192005D01*
X104456592Y-118155720D01*
X104384021Y-118119434D01*
X104202592Y-118119434D01*
X104093735Y-118155720D01*
X103803450Y-118845148D02*
X103694592Y-118881434D01*
X103513164Y-118881434D01*
X103440592Y-118845148D01*
X103404307Y-118808862D01*
X103368021Y-118736291D01*
X103368021Y-118663720D01*
X103404307Y-118591148D01*
X103440592Y-118554862D01*
X103513164Y-118518577D01*
X103658307Y-118482291D01*
X103730878Y-118446005D01*
X103767164Y-118409720D01*
X103803450Y-118337148D01*
X103803450Y-118264577D01*
X103767164Y-118192005D01*
X103730878Y-118155720D01*
X103658307Y-118119434D01*
X103476878Y-118119434D01*
X103368021Y-118155720D01*
X101626307Y-118482291D02*
X101880307Y-118482291D01*
X101880307Y-118881434D02*
X101880307Y-118119434D01*
X101517449Y-118119434D01*
X101263449Y-118663720D02*
X100900592Y-118663720D01*
X101336021Y-118881434D02*
X101082021Y-118119434D01*
X100828021Y-118881434D01*
X100574021Y-118881434D02*
X100574021Y-118119434D01*
X99848307Y-118881434D02*
X100211164Y-118881434D01*
X100211164Y-118119434D01*
X99594307Y-118119434D02*
X99594307Y-118736291D01*
X99558021Y-118808862D01*
X99521735Y-118845148D01*
X99449164Y-118881434D01*
X99304021Y-118881434D01*
X99231449Y-118845148D01*
X99195164Y-118808862D01*
X99158878Y-118736291D01*
X99158878Y-118119434D01*
X98360592Y-118881434D02*
X98614592Y-118518577D01*
X98796021Y-118881434D02*
X98796021Y-118119434D01*
X98505735Y-118119434D01*
X98433164Y-118155720D01*
X98396878Y-118192005D01*
X98360592Y-118264577D01*
X98360592Y-118373434D01*
X98396878Y-118446005D01*
X98433164Y-118482291D01*
X98505735Y-118518577D01*
X98796021Y-118518577D01*
X98034021Y-118482291D02*
X97780021Y-118482291D01*
X97671164Y-118881434D02*
X98034021Y-118881434D01*
X98034021Y-118119434D01*
X97671164Y-118119434D01*
X96764021Y-118881434D02*
X96764021Y-118119434D01*
X96582592Y-118119434D01*
X96473735Y-118155720D01*
X96401164Y-118228291D01*
X96364878Y-118300862D01*
X96328592Y-118446005D01*
X96328592Y-118554862D01*
X96364878Y-118700005D01*
X96401164Y-118772577D01*
X96473735Y-118845148D01*
X96582592Y-118881434D01*
X96764021Y-118881434D01*
X96002021Y-118482291D02*
X95748021Y-118482291D01*
X95639164Y-118881434D02*
X96002021Y-118881434D01*
X96002021Y-118119434D01*
X95639164Y-118119434D01*
X95348878Y-118845148D02*
X95240021Y-118881434D01*
X95058592Y-118881434D01*
X94986021Y-118845148D01*
X94949735Y-118808862D01*
X94913449Y-118736291D01*
X94913449Y-118663720D01*
X94949735Y-118591148D01*
X94986021Y-118554862D01*
X95058592Y-118518577D01*
X95203735Y-118482291D01*
X95276307Y-118446005D01*
X95312592Y-118409720D01*
X95348878Y-118337148D01*
X95348878Y-118264577D01*
X95312592Y-118192005D01*
X95276307Y-118155720D01*
X95203735Y-118119434D01*
X95022307Y-118119434D01*
X94913449Y-118155720D01*
X94151449Y-118808862D02*
X94187735Y-118845148D01*
X94296592Y-118881434D01*
X94369164Y-118881434D01*
X94478021Y-118845148D01*
X94550592Y-118772577D01*
X94586878Y-118700005D01*
X94623164Y-118554862D01*
X94623164Y-118446005D01*
X94586878Y-118300862D01*
X94550592Y-118228291D01*
X94478021Y-118155720D01*
X94369164Y-118119434D01*
X94296592Y-118119434D01*
X94187735Y-118155720D01*
X94151449Y-118192005D01*
X109210021Y-120935931D02*
X109101164Y-120972217D01*
X109064878Y-121008502D01*
X109028592Y-121081074D01*
X109028592Y-121189931D01*
X109064878Y-121262502D01*
X109101164Y-121298788D01*
X109173735Y-121335074D01*
X109464021Y-121335074D01*
X109464021Y-120573074D01*
X109210021Y-120573074D01*
X109137450Y-120609360D01*
X109101164Y-120645645D01*
X109064878Y-120718217D01*
X109064878Y-120790788D01*
X109101164Y-120863360D01*
X109137450Y-120899645D01*
X109210021Y-120935931D01*
X109464021Y-120935931D01*
X108266592Y-121335074D02*
X108520592Y-120972217D01*
X108702021Y-121335074D02*
X108702021Y-120573074D01*
X108411735Y-120573074D01*
X108339164Y-120609360D01*
X108302878Y-120645645D01*
X108266592Y-120718217D01*
X108266592Y-120827074D01*
X108302878Y-120899645D01*
X108339164Y-120935931D01*
X108411735Y-120972217D01*
X108702021Y-120972217D01*
X107940021Y-121335074D02*
X107940021Y-120573074D01*
X107758592Y-120573074D01*
X107649735Y-120609360D01*
X107577164Y-120681931D01*
X107540878Y-120754502D01*
X107504592Y-120899645D01*
X107504592Y-121008502D01*
X107540878Y-121153645D01*
X107577164Y-121226217D01*
X107649735Y-121298788D01*
X107758592Y-121335074D01*
X107940021Y-121335074D01*
X109464021Y-123788714D02*
X109464021Y-123026714D01*
X109173735Y-123026714D01*
X109101164Y-123063000D01*
X109064878Y-123099285D01*
X109028592Y-123171857D01*
X109028592Y-123280714D01*
X109064878Y-123353285D01*
X109101164Y-123389571D01*
X109173735Y-123425857D01*
X109464021Y-123425857D01*
X108339164Y-123788714D02*
X108702021Y-123788714D01*
X108702021Y-123026714D01*
X107649735Y-123716142D02*
X107686021Y-123752428D01*
X107794878Y-123788714D01*
X107867450Y-123788714D01*
X107976307Y-123752428D01*
X108048878Y-123679857D01*
X108085164Y-123607285D01*
X108121450Y-123462142D01*
X108121450Y-123353285D01*
X108085164Y-123208142D01*
X108048878Y-123135571D01*
X107976307Y-123063000D01*
X107867450Y-123026714D01*
X107794878Y-123026714D01*
X107686021Y-123063000D01*
X107649735Y-123099285D01*
X109464021Y-126242354D02*
X109464021Y-125480354D01*
X109173735Y-125480354D01*
X109101164Y-125516640D01*
X109064878Y-125552925D01*
X109028592Y-125625497D01*
X109028592Y-125734354D01*
X109064878Y-125806925D01*
X109101164Y-125843211D01*
X109173735Y-125879497D01*
X109464021Y-125879497D01*
X108774592Y-125480354D02*
X108593164Y-126242354D01*
X108448021Y-125698068D01*
X108302878Y-126242354D01*
X108121450Y-125480354D01*
X107395735Y-126242354D02*
X107649735Y-125879497D01*
X107831164Y-126242354D02*
X107831164Y-125480354D01*
X107540878Y-125480354D01*
X107468307Y-125516640D01*
X107432021Y-125552925D01*
X107395735Y-125625497D01*
X107395735Y-125734354D01*
X107432021Y-125806925D01*
X107468307Y-125843211D01*
X107540878Y-125879497D01*
X107831164Y-125879497D01*
X109210021Y-128296851D02*
X109464021Y-128296851D01*
X109464021Y-128695994D02*
X109464021Y-127933994D01*
X109101164Y-127933994D01*
X108810878Y-128695994D02*
X108810878Y-127933994D01*
X108012592Y-128695994D02*
X108266592Y-128333137D01*
X108448021Y-128695994D02*
X108448021Y-127933994D01*
X108157735Y-127933994D01*
X108085164Y-127970280D01*
X108048878Y-128006565D01*
X108012592Y-128079137D01*
X108012592Y-128187994D01*
X108048878Y-128260565D01*
X108085164Y-128296851D01*
X108157735Y-128333137D01*
X108448021Y-128333137D01*
X107686021Y-128695994D02*
X107686021Y-127933994D01*
X107432021Y-128478280D01*
X107178021Y-127933994D01*
X107178021Y-128695994D01*
X106915857Y-113269304D02*
X106915857Y-113886161D01*
X106879571Y-113958732D01*
X106843285Y-113995018D01*
X106770714Y-114031304D01*
X106625571Y-114031304D01*
X106553000Y-113995018D01*
X106516714Y-113958732D01*
X106480428Y-113886161D01*
X106480428Y-113269304D01*
X106153857Y-113995018D02*
X106045000Y-114031304D01*
X105863571Y-114031304D01*
X105791000Y-113995018D01*
X105754714Y-113958732D01*
X105718428Y-113886161D01*
X105718428Y-113813590D01*
X105754714Y-113741018D01*
X105791000Y-113704732D01*
X105863571Y-113668447D01*
X106008714Y-113632161D01*
X106081285Y-113595875D01*
X106117571Y-113559590D01*
X106153857Y-113487018D01*
X106153857Y-113414447D01*
X106117571Y-113341875D01*
X106081285Y-113305590D01*
X106008714Y-113269304D01*
X105827285Y-113269304D01*
X105718428Y-113305590D01*
X105137857Y-113632161D02*
X105029000Y-113668447D01*
X104992714Y-113704732D01*
X104956428Y-113777304D01*
X104956428Y-113886161D01*
X104992714Y-113958732D01*
X105029000Y-113995018D01*
X105101571Y-114031304D01*
X105391857Y-114031304D01*
X105391857Y-113269304D01*
X105137857Y-113269304D01*
X105065285Y-113305590D01*
X105029000Y-113341875D01*
X104992714Y-113414447D01*
X104992714Y-113487018D01*
X105029000Y-113559590D01*
X105065285Y-113595875D01*
X105137857Y-113632161D01*
X105391857Y-113632161D01*
X104049285Y-114031304D02*
X104049285Y-113269304D01*
X103795285Y-113813590D01*
X103541285Y-113269304D01*
X103541285Y-114031304D01*
X103069571Y-114031304D02*
X103142142Y-113995018D01*
X103178428Y-113958732D01*
X103214714Y-113886161D01*
X103214714Y-113668447D01*
X103178428Y-113595875D01*
X103142142Y-113559590D01*
X103069571Y-113523304D01*
X102960714Y-113523304D01*
X102888142Y-113559590D01*
X102851857Y-113595875D01*
X102815571Y-113668447D01*
X102815571Y-113886161D01*
X102851857Y-113958732D01*
X102888142Y-113995018D01*
X102960714Y-114031304D01*
X103069571Y-114031304D01*
X102597857Y-113523304D02*
X102307571Y-113523304D01*
X102489000Y-113269304D02*
X102489000Y-113922447D01*
X102452714Y-113995018D01*
X102380142Y-114031304D01*
X102307571Y-114031304D01*
X101944714Y-114031304D02*
X102017285Y-113995018D01*
X102053571Y-113958732D01*
X102089857Y-113886161D01*
X102089857Y-113668447D01*
X102053571Y-113595875D01*
X102017285Y-113559590D01*
X101944714Y-113523304D01*
X101835857Y-113523304D01*
X101763285Y-113559590D01*
X101727000Y-113595875D01*
X101690714Y-113668447D01*
X101690714Y-113886161D01*
X101727000Y-113958732D01*
X101763285Y-113995018D01*
X101835857Y-114031304D01*
X101944714Y-114031304D01*
X101364142Y-114031304D02*
X101364142Y-113523304D01*
X101364142Y-113668447D02*
X101327857Y-113595875D01*
X101291571Y-113559590D01*
X101219000Y-113523304D01*
X101146428Y-113523304D01*
X99477285Y-113632161D02*
X99731285Y-113632161D01*
X99731285Y-114031304D02*
X99731285Y-113269304D01*
X99368428Y-113269304D01*
X99150714Y-113523304D02*
X98969285Y-114031304D01*
X98787857Y-113523304D02*
X98969285Y-114031304D01*
X99041857Y-114212732D01*
X99078142Y-114249018D01*
X99150714Y-114285304D01*
X98497571Y-114031304D02*
X98497571Y-113269304D01*
X98497571Y-113559590D02*
X98425000Y-113523304D01*
X98279857Y-113523304D01*
X98207285Y-113559590D01*
X98171000Y-113595875D01*
X98134714Y-113668447D01*
X98134714Y-113886161D01*
X98171000Y-113958732D01*
X98207285Y-113995018D01*
X98279857Y-114031304D01*
X98425000Y-114031304D01*
X98497571Y-113995018D01*
X97517857Y-113995018D02*
X97590428Y-114031304D01*
X97735571Y-114031304D01*
X97808142Y-113995018D01*
X97844428Y-113922447D01*
X97844428Y-113632161D01*
X97808142Y-113559590D01*
X97735571Y-113523304D01*
X97590428Y-113523304D01*
X97517857Y-113559590D01*
X97481571Y-113632161D01*
X97481571Y-113704732D01*
X97844428Y-113777304D01*
X97155000Y-114031304D02*
X97155000Y-113523304D01*
X97155000Y-113668447D02*
X97118714Y-113595875D01*
X97082428Y-113559590D01*
X97009857Y-113523304D01*
X96937285Y-113523304D01*
X95739857Y-114031304D02*
X96102714Y-114031304D01*
X96102714Y-113269304D01*
X95159285Y-114031304D02*
X95159285Y-113632161D01*
X95195571Y-113559590D01*
X95268142Y-113523304D01*
X95413285Y-113523304D01*
X95485857Y-113559590D01*
X95159285Y-113995018D02*
X95231857Y-114031304D01*
X95413285Y-114031304D01*
X95485857Y-113995018D01*
X95522142Y-113922447D01*
X95522142Y-113849875D01*
X95485857Y-113777304D01*
X95413285Y-113741018D01*
X95231857Y-113741018D01*
X95159285Y-113704732D01*
X94796428Y-114031304D02*
X94796428Y-113269304D01*
X94796428Y-113559590D02*
X94723857Y-113523304D01*
X94578714Y-113523304D01*
X94506142Y-113559590D01*
X94469857Y-113595875D01*
X94433571Y-113668447D01*
X94433571Y-113886161D01*
X94469857Y-113958732D01*
X94506142Y-113995018D01*
X94578714Y-114031304D01*
X94723857Y-114031304D01*
X94796428Y-113995018D01*
X94143285Y-113995018D02*
X94070714Y-114031304D01*
X93925571Y-114031304D01*
X93853000Y-113995018D01*
X93816714Y-113922447D01*
X93816714Y-113886161D01*
X93853000Y-113813590D01*
X93925571Y-113777304D01*
X94034428Y-113777304D01*
X94107000Y-113741018D01*
X94143285Y-113668447D01*
X94143285Y-113632161D01*
X94107000Y-113559590D01*
X94034428Y-113523304D01*
X93925571Y-113523304D01*
X93853000Y-113559590D01*
X92909571Y-114031304D02*
X92909571Y-113269304D01*
X92546714Y-113523304D02*
X92546714Y-114031304D01*
X92546714Y-113595875D02*
X92510428Y-113559590D01*
X92437857Y-113523304D01*
X92329000Y-113523304D01*
X92256428Y-113559590D01*
X92220142Y-113632161D01*
X92220142Y-114031304D01*
X91530714Y-113995018D02*
X91603285Y-114031304D01*
X91748428Y-114031304D01*
X91821000Y-113995018D01*
X91857285Y-113958732D01*
X91893571Y-113886161D01*
X91893571Y-113668447D01*
X91857285Y-113595875D01*
X91821000Y-113559590D01*
X91748428Y-113523304D01*
X91603285Y-113523304D01*
X91530714Y-113559590D01*
X91204142Y-113958732D02*
X91167857Y-113995018D01*
X91204142Y-114031304D01*
X91240428Y-113995018D01*
X91204142Y-113958732D01*
X91204142Y-114031304D01*
X107659714Y-114568695D02*
X107623428Y-114532410D01*
X107550857Y-114496124D01*
X107369428Y-114496124D01*
X107296857Y-114532410D01*
X107260571Y-114568695D01*
X107224285Y-114641267D01*
X107224285Y-114713838D01*
X107260571Y-114822695D01*
X107696000Y-115258124D01*
X107224285Y-115258124D01*
X106752571Y-114496124D02*
X106680000Y-114496124D01*
X106607428Y-114532410D01*
X106571142Y-114568695D01*
X106534857Y-114641267D01*
X106498571Y-114786410D01*
X106498571Y-114967838D01*
X106534857Y-115112981D01*
X106571142Y-115185552D01*
X106607428Y-115221838D01*
X106680000Y-115258124D01*
X106752571Y-115258124D01*
X106825142Y-115221838D01*
X106861428Y-115185552D01*
X106897714Y-115112981D01*
X106934000Y-114967838D01*
X106934000Y-114786410D01*
X106897714Y-114641267D01*
X106861428Y-114568695D01*
X106825142Y-114532410D01*
X106752571Y-114496124D01*
X105772857Y-115258124D02*
X106208285Y-115258124D01*
X105990571Y-115258124D02*
X105990571Y-114496124D01*
X106063142Y-114604981D01*
X106135714Y-114677552D01*
X106208285Y-114713838D01*
X105410000Y-115258124D02*
X105264857Y-115258124D01*
X105192285Y-115221838D01*
X105156000Y-115185552D01*
X105083428Y-115076695D01*
X105047142Y-114931552D01*
X105047142Y-114641267D01*
X105083428Y-114568695D01*
X105119714Y-114532410D01*
X105192285Y-114496124D01*
X105337428Y-114496124D01*
X105410000Y-114532410D01*
X105446285Y-114568695D01*
X105482571Y-114641267D01*
X105482571Y-114822695D01*
X105446285Y-114895267D01*
X105410000Y-114931552D01*
X105337428Y-114967838D01*
X105192285Y-114967838D01*
X105119714Y-114931552D01*
X105083428Y-114895267D01*
X105047142Y-114822695D01*
X103994857Y-114496124D02*
X103922285Y-114496124D01*
X103849714Y-114532410D01*
X103813428Y-114568695D01*
X103777142Y-114641267D01*
X103740857Y-114786410D01*
X103740857Y-114967838D01*
X103777142Y-115112981D01*
X103813428Y-115185552D01*
X103849714Y-115221838D01*
X103922285Y-115258124D01*
X103994857Y-115258124D01*
X104067428Y-115221838D01*
X104103714Y-115185552D01*
X104140000Y-115112981D01*
X104176285Y-114967838D01*
X104176285Y-114786410D01*
X104140000Y-114641267D01*
X104103714Y-114568695D01*
X104067428Y-114532410D01*
X103994857Y-114496124D01*
X103414285Y-115185552D02*
X103378000Y-115221838D01*
X103414285Y-115258124D01*
X103450571Y-115221838D01*
X103414285Y-115185552D01*
X103414285Y-115258124D01*
X103124000Y-114496124D02*
X102652285Y-114496124D01*
X102906285Y-114786410D01*
X102797428Y-114786410D01*
X102724857Y-114822695D01*
X102688571Y-114858981D01*
X102652285Y-114931552D01*
X102652285Y-115112981D01*
X102688571Y-115185552D01*
X102724857Y-115221838D01*
X102797428Y-115258124D01*
X103015142Y-115258124D01*
X103087714Y-115221838D01*
X103124000Y-115185552D01*
X102325714Y-115185552D02*
X102289428Y-115221838D01*
X102325714Y-115258124D01*
X102362000Y-115221838D01*
X102325714Y-115185552D01*
X102325714Y-115258124D01*
X101817714Y-114496124D02*
X101745142Y-114496124D01*
X101672571Y-114532410D01*
X101636285Y-114568695D01*
X101600000Y-114641267D01*
X101563714Y-114786410D01*
X101563714Y-114967838D01*
X101600000Y-115112981D01*
X101636285Y-115185552D01*
X101672571Y-115221838D01*
X101745142Y-115258124D01*
X101817714Y-115258124D01*
X101890285Y-115221838D01*
X101926571Y-115185552D01*
X101962857Y-115112981D01*
X101999142Y-114967838D01*
X101999142Y-114786410D01*
X101962857Y-114641267D01*
X101926571Y-114568695D01*
X101890285Y-114532410D01*
X101817714Y-114496124D01*
X101237142Y-114967838D02*
X100656571Y-114967838D01*
X99967142Y-115258124D02*
X99967142Y-114858981D01*
X100003428Y-114786410D01*
X100076000Y-114750124D01*
X100221142Y-114750124D01*
X100293714Y-114786410D01*
X99967142Y-115221838D02*
X100039714Y-115258124D01*
X100221142Y-115258124D01*
X100293714Y-115221838D01*
X100330000Y-115149267D01*
X100330000Y-115076695D01*
X100293714Y-115004124D01*
X100221142Y-114967838D01*
X100039714Y-114967838D01*
X99967142Y-114931552D01*
X98189142Y-114858981D02*
X98080285Y-114895267D01*
X98044000Y-114931552D01*
X98007714Y-115004124D01*
X98007714Y-115112981D01*
X98044000Y-115185552D01*
X98080285Y-115221838D01*
X98152857Y-115258124D01*
X98443142Y-115258124D01*
X98443142Y-114496124D01*
X98189142Y-114496124D01*
X98116571Y-114532410D01*
X98080285Y-114568695D01*
X98044000Y-114641267D01*
X98044000Y-114713838D01*
X98080285Y-114786410D01*
X98116571Y-114822695D01*
X98189142Y-114858981D01*
X98443142Y-114858981D01*
X97681142Y-115258124D02*
X97681142Y-114750124D01*
X97681142Y-114895267D02*
X97644857Y-114822695D01*
X97608571Y-114786410D01*
X97536000Y-114750124D01*
X97463428Y-114750124D01*
X96882857Y-114750124D02*
X96882857Y-115258124D01*
X97209428Y-114750124D02*
X97209428Y-115149267D01*
X97173142Y-115221838D01*
X97100571Y-115258124D01*
X96991714Y-115258124D01*
X96919142Y-115221838D01*
X96882857Y-115185552D01*
X96556285Y-115221838D02*
X96483714Y-115258124D01*
X96338571Y-115258124D01*
X96266000Y-115221838D01*
X96229714Y-115149267D01*
X96229714Y-115112981D01*
X96266000Y-115040410D01*
X96338571Y-115004124D01*
X96447428Y-115004124D01*
X96520000Y-114967838D01*
X96556285Y-114895267D01*
X96556285Y-114858981D01*
X96520000Y-114786410D01*
X96447428Y-114750124D01*
X96338571Y-114750124D01*
X96266000Y-114786410D01*
X95903142Y-115258124D02*
X95903142Y-114496124D01*
X95576571Y-115258124D02*
X95576571Y-114858981D01*
X95612857Y-114786410D01*
X95685428Y-114750124D01*
X95794285Y-114750124D01*
X95866857Y-114786410D01*
X95903142Y-114822695D01*
X94923428Y-115221838D02*
X94996000Y-115258124D01*
X95141142Y-115258124D01*
X95213714Y-115221838D01*
X95250000Y-115149267D01*
X95250000Y-114858981D01*
X95213714Y-114786410D01*
X95141142Y-114750124D01*
X94996000Y-114750124D01*
X94923428Y-114786410D01*
X94887142Y-114858981D01*
X94887142Y-114931552D01*
X95250000Y-115004124D01*
X94234000Y-115258124D02*
X94234000Y-114496124D01*
X94234000Y-115221838D02*
X94306571Y-115258124D01*
X94451714Y-115258124D01*
X94524285Y-115221838D01*
X94560571Y-115185552D01*
X94596857Y-115112981D01*
X94596857Y-114895267D01*
X94560571Y-114822695D01*
X94524285Y-114786410D01*
X94451714Y-114750124D01*
X94306571Y-114750124D01*
X94234000Y-114786410D01*
X93290571Y-115258124D02*
X93290571Y-114496124D01*
X93036571Y-115040410D01*
X92782571Y-114496124D01*
X92782571Y-115258124D01*
X92310857Y-115258124D02*
X92383428Y-115221838D01*
X92419714Y-115185552D01*
X92456000Y-115112981D01*
X92456000Y-114895267D01*
X92419714Y-114822695D01*
X92383428Y-114786410D01*
X92310857Y-114750124D01*
X92202000Y-114750124D01*
X92129428Y-114786410D01*
X92093142Y-114822695D01*
X92056857Y-114895267D01*
X92056857Y-115112981D01*
X92093142Y-115185552D01*
X92129428Y-115221838D01*
X92202000Y-115258124D01*
X92310857Y-115258124D01*
X91839142Y-114750124D02*
X91548857Y-114750124D01*
X91730285Y-114496124D02*
X91730285Y-115149267D01*
X91694000Y-115221838D01*
X91621428Y-115258124D01*
X91548857Y-115258124D01*
X91186000Y-115258124D02*
X91258571Y-115221838D01*
X91294857Y-115185552D01*
X91331142Y-115112981D01*
X91331142Y-114895267D01*
X91294857Y-114822695D01*
X91258571Y-114786410D01*
X91186000Y-114750124D01*
X91077142Y-114750124D01*
X91004571Y-114786410D01*
X90968285Y-114822695D01*
X90932000Y-114895267D01*
X90932000Y-115112981D01*
X90968285Y-115185552D01*
X91004571Y-115221838D01*
X91077142Y-115258124D01*
X91186000Y-115258124D01*
X90605428Y-115258124D02*
X90605428Y-114750124D01*
X90605428Y-114895267D02*
X90569142Y-114822695D01*
X90532857Y-114786410D01*
X90460285Y-114750124D01*
X90387714Y-114750124D01*
D10*
X62357000Y-118110000D02*
X62357000Y-128778000D01*
X43434000Y-128778000D02*
X43434000Y-114808000D01*
X70612000Y-120904000D02*
X43434000Y-120904000D01*
X70612000Y-118110000D02*
X43434000Y-118110000D01*
X70612000Y-128778000D02*
X43434000Y-128778000D01*
X70612000Y-123698000D02*
X43434000Y-123698000D01*
X70612000Y-114808000D02*
X70612000Y-128778000D01*
X70612000Y-126492000D02*
X43434000Y-126492000D01*
X43434000Y-114808000D02*
X70612000Y-114808000D01*
X66167000Y-118110000D02*
X66167000Y-128778000D01*
D11*
X68697021Y-117938005D02*
X68769592Y-117901720D01*
X68842164Y-117829148D01*
X68951021Y-117720291D01*
X69023592Y-117684005D01*
X69096164Y-117684005D01*
X69059878Y-117865434D02*
X69132450Y-117829148D01*
X69205021Y-117756577D01*
X69241307Y-117611434D01*
X69241307Y-117357434D01*
X69205021Y-117212291D01*
X69132450Y-117139720D01*
X69059878Y-117103434D01*
X68914735Y-117103434D01*
X68842164Y-117139720D01*
X68769592Y-117212291D01*
X68733307Y-117357434D01*
X68733307Y-117611434D01*
X68769592Y-117756577D01*
X68842164Y-117829148D01*
X68914735Y-117865434D01*
X69059878Y-117865434D01*
X68443021Y-117647720D02*
X68080164Y-117647720D01*
X68515592Y-117865434D02*
X68261592Y-117103434D01*
X68007592Y-117865434D01*
X67753592Y-117792862D02*
X67717307Y-117829148D01*
X67753592Y-117865434D01*
X67789878Y-117829148D01*
X67753592Y-117792862D01*
X67753592Y-117865434D01*
X67753592Y-117393720D02*
X67717307Y-117430005D01*
X67753592Y-117466291D01*
X67789878Y-117430005D01*
X67753592Y-117393720D01*
X67753592Y-117466291D01*
X65649021Y-117865434D02*
X65649021Y-117103434D01*
X65358735Y-117103434D01*
X65286164Y-117139720D01*
X65249878Y-117176005D01*
X65213592Y-117248577D01*
X65213592Y-117357434D01*
X65249878Y-117430005D01*
X65286164Y-117466291D01*
X65358735Y-117502577D01*
X65649021Y-117502577D01*
X64923307Y-117647720D02*
X64560450Y-117647720D01*
X64995878Y-117865434D02*
X64741878Y-117103434D01*
X64487878Y-117865434D01*
X64270164Y-117829148D02*
X64161307Y-117865434D01*
X63979878Y-117865434D01*
X63907307Y-117829148D01*
X63871021Y-117792862D01*
X63834735Y-117720291D01*
X63834735Y-117647720D01*
X63871021Y-117575148D01*
X63907307Y-117538862D01*
X63979878Y-117502577D01*
X64125021Y-117466291D01*
X64197592Y-117430005D01*
X64233878Y-117393720D01*
X64270164Y-117321148D01*
X64270164Y-117248577D01*
X64233878Y-117176005D01*
X64197592Y-117139720D01*
X64125021Y-117103434D01*
X63943592Y-117103434D01*
X63834735Y-117139720D01*
X63544450Y-117829148D02*
X63435592Y-117865434D01*
X63254164Y-117865434D01*
X63181592Y-117829148D01*
X63145307Y-117792862D01*
X63109021Y-117720291D01*
X63109021Y-117647720D01*
X63145307Y-117575148D01*
X63181592Y-117538862D01*
X63254164Y-117502577D01*
X63399307Y-117466291D01*
X63471878Y-117430005D01*
X63508164Y-117393720D01*
X63544450Y-117321148D01*
X63544450Y-117248577D01*
X63508164Y-117176005D01*
X63471878Y-117139720D01*
X63399307Y-117103434D01*
X63217878Y-117103434D01*
X63109021Y-117139720D01*
X61367307Y-117466291D02*
X61621307Y-117466291D01*
X61621307Y-117865434D02*
X61621307Y-117103434D01*
X61258450Y-117103434D01*
X61004450Y-117647720D02*
X60641592Y-117647720D01*
X61077021Y-117865434D02*
X60823021Y-117103434D01*
X60569021Y-117865434D01*
X60315021Y-117865434D02*
X60315021Y-117103434D01*
X59589307Y-117865434D02*
X59952164Y-117865434D01*
X59952164Y-117103434D01*
X59335307Y-117103434D02*
X59335307Y-117720291D01*
X59299021Y-117792862D01*
X59262735Y-117829148D01*
X59190164Y-117865434D01*
X59045021Y-117865434D01*
X58972450Y-117829148D01*
X58936164Y-117792862D01*
X58899878Y-117720291D01*
X58899878Y-117103434D01*
X58101592Y-117865434D02*
X58355592Y-117502577D01*
X58537021Y-117865434D02*
X58537021Y-117103434D01*
X58246735Y-117103434D01*
X58174164Y-117139720D01*
X58137878Y-117176005D01*
X58101592Y-117248577D01*
X58101592Y-117357434D01*
X58137878Y-117430005D01*
X58174164Y-117466291D01*
X58246735Y-117502577D01*
X58537021Y-117502577D01*
X57775021Y-117466291D02*
X57521021Y-117466291D01*
X57412164Y-117865434D02*
X57775021Y-117865434D01*
X57775021Y-117103434D01*
X57412164Y-117103434D01*
X56505021Y-117865434D02*
X56505021Y-117103434D01*
X56323592Y-117103434D01*
X56214735Y-117139720D01*
X56142164Y-117212291D01*
X56105878Y-117284862D01*
X56069592Y-117430005D01*
X56069592Y-117538862D01*
X56105878Y-117684005D01*
X56142164Y-117756577D01*
X56214735Y-117829148D01*
X56323592Y-117865434D01*
X56505021Y-117865434D01*
X55743021Y-117466291D02*
X55489021Y-117466291D01*
X55380164Y-117865434D02*
X55743021Y-117865434D01*
X55743021Y-117103434D01*
X55380164Y-117103434D01*
X55089878Y-117829148D02*
X54981021Y-117865434D01*
X54799592Y-117865434D01*
X54727021Y-117829148D01*
X54690735Y-117792862D01*
X54654450Y-117720291D01*
X54654450Y-117647720D01*
X54690735Y-117575148D01*
X54727021Y-117538862D01*
X54799592Y-117502577D01*
X54944735Y-117466291D01*
X55017307Y-117430005D01*
X55053592Y-117393720D01*
X55089878Y-117321148D01*
X55089878Y-117248577D01*
X55053592Y-117176005D01*
X55017307Y-117139720D01*
X54944735Y-117103434D01*
X54763307Y-117103434D01*
X54654450Y-117139720D01*
X53892450Y-117792862D02*
X53928735Y-117829148D01*
X54037592Y-117865434D01*
X54110164Y-117865434D01*
X54219021Y-117829148D01*
X54291592Y-117756577D01*
X54327878Y-117684005D01*
X54364164Y-117538862D01*
X54364164Y-117430005D01*
X54327878Y-117284862D01*
X54291592Y-117212291D01*
X54219021Y-117139720D01*
X54110164Y-117103434D01*
X54037592Y-117103434D01*
X53928735Y-117139720D01*
X53892450Y-117176005D01*
X68951021Y-119919931D02*
X68842164Y-119956217D01*
X68805878Y-119992502D01*
X68769592Y-120065074D01*
X68769592Y-120173931D01*
X68805878Y-120246502D01*
X68842164Y-120282788D01*
X68914735Y-120319074D01*
X69205021Y-120319074D01*
X69205021Y-119557074D01*
X68951021Y-119557074D01*
X68878450Y-119593360D01*
X68842164Y-119629645D01*
X68805878Y-119702217D01*
X68805878Y-119774788D01*
X68842164Y-119847360D01*
X68878450Y-119883645D01*
X68951021Y-119919931D01*
X69205021Y-119919931D01*
X68007592Y-120319074D02*
X68261592Y-119956217D01*
X68443021Y-120319074D02*
X68443021Y-119557074D01*
X68152735Y-119557074D01*
X68080164Y-119593360D01*
X68043878Y-119629645D01*
X68007592Y-119702217D01*
X68007592Y-119811074D01*
X68043878Y-119883645D01*
X68080164Y-119919931D01*
X68152735Y-119956217D01*
X68443021Y-119956217D01*
X67681021Y-120319074D02*
X67681021Y-119557074D01*
X67499592Y-119557074D01*
X67390735Y-119593360D01*
X67318164Y-119665931D01*
X67281878Y-119738502D01*
X67245592Y-119883645D01*
X67245592Y-119992502D01*
X67281878Y-120137645D01*
X67318164Y-120210217D01*
X67390735Y-120282788D01*
X67499592Y-120319074D01*
X67681021Y-120319074D01*
X69205021Y-122772714D02*
X69205021Y-122010714D01*
X68914735Y-122010714D01*
X68842164Y-122047000D01*
X68805878Y-122083285D01*
X68769592Y-122155857D01*
X68769592Y-122264714D01*
X68805878Y-122337285D01*
X68842164Y-122373571D01*
X68914735Y-122409857D01*
X69205021Y-122409857D01*
X68080164Y-122772714D02*
X68443021Y-122772714D01*
X68443021Y-122010714D01*
X67390735Y-122700142D02*
X67427021Y-122736428D01*
X67535878Y-122772714D01*
X67608450Y-122772714D01*
X67717307Y-122736428D01*
X67789878Y-122663857D01*
X67826164Y-122591285D01*
X67862450Y-122446142D01*
X67862450Y-122337285D01*
X67826164Y-122192142D01*
X67789878Y-122119571D01*
X67717307Y-122047000D01*
X67608450Y-122010714D01*
X67535878Y-122010714D01*
X67427021Y-122047000D01*
X67390735Y-122083285D01*
X69205021Y-125226354D02*
X69205021Y-124464354D01*
X68914735Y-124464354D01*
X68842164Y-124500640D01*
X68805878Y-124536925D01*
X68769592Y-124609497D01*
X68769592Y-124718354D01*
X68805878Y-124790925D01*
X68842164Y-124827211D01*
X68914735Y-124863497D01*
X69205021Y-124863497D01*
X68515592Y-124464354D02*
X68334164Y-125226354D01*
X68189021Y-124682068D01*
X68043878Y-125226354D01*
X67862450Y-124464354D01*
X67136735Y-125226354D02*
X67390735Y-124863497D01*
X67572164Y-125226354D02*
X67572164Y-124464354D01*
X67281878Y-124464354D01*
X67209307Y-124500640D01*
X67173021Y-124536925D01*
X67136735Y-124609497D01*
X67136735Y-124718354D01*
X67173021Y-124790925D01*
X67209307Y-124827211D01*
X67281878Y-124863497D01*
X67572164Y-124863497D01*
X68951021Y-127280851D02*
X69205021Y-127280851D01*
X69205021Y-127679994D02*
X69205021Y-126917994D01*
X68842164Y-126917994D01*
X68551878Y-127679994D02*
X68551878Y-126917994D01*
X67753592Y-127679994D02*
X68007592Y-127317137D01*
X68189021Y-127679994D02*
X68189021Y-126917994D01*
X67898735Y-126917994D01*
X67826164Y-126954280D01*
X67789878Y-126990565D01*
X67753592Y-127063137D01*
X67753592Y-127171994D01*
X67789878Y-127244565D01*
X67826164Y-127280851D01*
X67898735Y-127317137D01*
X68189021Y-127317137D01*
X67427021Y-127679994D02*
X67427021Y-126917994D01*
X67173021Y-127462280D01*
X66919021Y-126917994D01*
X66919021Y-127679994D01*
X66656857Y-112253304D02*
X66656857Y-112870161D01*
X66620571Y-112942732D01*
X66584285Y-112979018D01*
X66511714Y-113015304D01*
X66366571Y-113015304D01*
X66294000Y-112979018D01*
X66257714Y-112942732D01*
X66221428Y-112870161D01*
X66221428Y-112253304D01*
X65894857Y-112979018D02*
X65786000Y-113015304D01*
X65604571Y-113015304D01*
X65532000Y-112979018D01*
X65495714Y-112942732D01*
X65459428Y-112870161D01*
X65459428Y-112797590D01*
X65495714Y-112725018D01*
X65532000Y-112688732D01*
X65604571Y-112652447D01*
X65749714Y-112616161D01*
X65822285Y-112579875D01*
X65858571Y-112543590D01*
X65894857Y-112471018D01*
X65894857Y-112398447D01*
X65858571Y-112325875D01*
X65822285Y-112289590D01*
X65749714Y-112253304D01*
X65568285Y-112253304D01*
X65459428Y-112289590D01*
X64878857Y-112616161D02*
X64770000Y-112652447D01*
X64733714Y-112688732D01*
X64697428Y-112761304D01*
X64697428Y-112870161D01*
X64733714Y-112942732D01*
X64770000Y-112979018D01*
X64842571Y-113015304D01*
X65132857Y-113015304D01*
X65132857Y-112253304D01*
X64878857Y-112253304D01*
X64806285Y-112289590D01*
X64770000Y-112325875D01*
X64733714Y-112398447D01*
X64733714Y-112471018D01*
X64770000Y-112543590D01*
X64806285Y-112579875D01*
X64878857Y-112616161D01*
X65132857Y-112616161D01*
X63790285Y-113015304D02*
X63790285Y-112253304D01*
X63536285Y-112797590D01*
X63282285Y-112253304D01*
X63282285Y-113015304D01*
X62810571Y-113015304D02*
X62883142Y-112979018D01*
X62919428Y-112942732D01*
X62955714Y-112870161D01*
X62955714Y-112652447D01*
X62919428Y-112579875D01*
X62883142Y-112543590D01*
X62810571Y-112507304D01*
X62701714Y-112507304D01*
X62629142Y-112543590D01*
X62592857Y-112579875D01*
X62556571Y-112652447D01*
X62556571Y-112870161D01*
X62592857Y-112942732D01*
X62629142Y-112979018D01*
X62701714Y-113015304D01*
X62810571Y-113015304D01*
X62338857Y-112507304D02*
X62048571Y-112507304D01*
X62230000Y-112253304D02*
X62230000Y-112906447D01*
X62193714Y-112979018D01*
X62121142Y-113015304D01*
X62048571Y-113015304D01*
X61685714Y-113015304D02*
X61758285Y-112979018D01*
X61794571Y-112942732D01*
X61830857Y-112870161D01*
X61830857Y-112652447D01*
X61794571Y-112579875D01*
X61758285Y-112543590D01*
X61685714Y-112507304D01*
X61576857Y-112507304D01*
X61504285Y-112543590D01*
X61468000Y-112579875D01*
X61431714Y-112652447D01*
X61431714Y-112870161D01*
X61468000Y-112942732D01*
X61504285Y-112979018D01*
X61576857Y-113015304D01*
X61685714Y-113015304D01*
X61105142Y-113015304D02*
X61105142Y-112507304D01*
X61105142Y-112652447D02*
X61068857Y-112579875D01*
X61032571Y-112543590D01*
X60960000Y-112507304D01*
X60887428Y-112507304D01*
X59218285Y-112616161D02*
X59472285Y-112616161D01*
X59472285Y-113015304D02*
X59472285Y-112253304D01*
X59109428Y-112253304D01*
X58891714Y-112507304D02*
X58710285Y-113015304D01*
X58528857Y-112507304D02*
X58710285Y-113015304D01*
X58782857Y-113196732D01*
X58819142Y-113233018D01*
X58891714Y-113269304D01*
X58238571Y-113015304D02*
X58238571Y-112253304D01*
X58238571Y-112543590D02*
X58166000Y-112507304D01*
X58020857Y-112507304D01*
X57948285Y-112543590D01*
X57912000Y-112579875D01*
X57875714Y-112652447D01*
X57875714Y-112870161D01*
X57912000Y-112942732D01*
X57948285Y-112979018D01*
X58020857Y-113015304D01*
X58166000Y-113015304D01*
X58238571Y-112979018D01*
X57258857Y-112979018D02*
X57331428Y-113015304D01*
X57476571Y-113015304D01*
X57549142Y-112979018D01*
X57585428Y-112906447D01*
X57585428Y-112616161D01*
X57549142Y-112543590D01*
X57476571Y-112507304D01*
X57331428Y-112507304D01*
X57258857Y-112543590D01*
X57222571Y-112616161D01*
X57222571Y-112688732D01*
X57585428Y-112761304D01*
X56896000Y-113015304D02*
X56896000Y-112507304D01*
X56896000Y-112652447D02*
X56859714Y-112579875D01*
X56823428Y-112543590D01*
X56750857Y-112507304D01*
X56678285Y-112507304D01*
X55480857Y-113015304D02*
X55843714Y-113015304D01*
X55843714Y-112253304D01*
X54900285Y-113015304D02*
X54900285Y-112616161D01*
X54936571Y-112543590D01*
X55009142Y-112507304D01*
X55154285Y-112507304D01*
X55226857Y-112543590D01*
X54900285Y-112979018D02*
X54972857Y-113015304D01*
X55154285Y-113015304D01*
X55226857Y-112979018D01*
X55263142Y-112906447D01*
X55263142Y-112833875D01*
X55226857Y-112761304D01*
X55154285Y-112725018D01*
X54972857Y-112725018D01*
X54900285Y-112688732D01*
X54537428Y-113015304D02*
X54537428Y-112253304D01*
X54537428Y-112543590D02*
X54464857Y-112507304D01*
X54319714Y-112507304D01*
X54247142Y-112543590D01*
X54210857Y-112579875D01*
X54174571Y-112652447D01*
X54174571Y-112870161D01*
X54210857Y-112942732D01*
X54247142Y-112979018D01*
X54319714Y-113015304D01*
X54464857Y-113015304D01*
X54537428Y-112979018D01*
X53884285Y-112979018D02*
X53811714Y-113015304D01*
X53666571Y-113015304D01*
X53594000Y-112979018D01*
X53557714Y-112906447D01*
X53557714Y-112870161D01*
X53594000Y-112797590D01*
X53666571Y-112761304D01*
X53775428Y-112761304D01*
X53848000Y-112725018D01*
X53884285Y-112652447D01*
X53884285Y-112616161D01*
X53848000Y-112543590D01*
X53775428Y-112507304D01*
X53666571Y-112507304D01*
X53594000Y-112543590D01*
X52650571Y-113015304D02*
X52650571Y-112253304D01*
X52287714Y-112507304D02*
X52287714Y-113015304D01*
X52287714Y-112579875D02*
X52251428Y-112543590D01*
X52178857Y-112507304D01*
X52070000Y-112507304D01*
X51997428Y-112543590D01*
X51961142Y-112616161D01*
X51961142Y-113015304D01*
X51271714Y-112979018D02*
X51344285Y-113015304D01*
X51489428Y-113015304D01*
X51562000Y-112979018D01*
X51598285Y-112942732D01*
X51634571Y-112870161D01*
X51634571Y-112652447D01*
X51598285Y-112579875D01*
X51562000Y-112543590D01*
X51489428Y-112507304D01*
X51344285Y-112507304D01*
X51271714Y-112543590D01*
X50945142Y-112942732D02*
X50908857Y-112979018D01*
X50945142Y-113015304D01*
X50981428Y-112979018D01*
X50945142Y-112942732D01*
X50945142Y-113015304D01*
X67146714Y-113552695D02*
X67110428Y-113516410D01*
X67037857Y-113480124D01*
X66856428Y-113480124D01*
X66783857Y-113516410D01*
X66747571Y-113552695D01*
X66711285Y-113625267D01*
X66711285Y-113697838D01*
X66747571Y-113806695D01*
X67183000Y-114242124D01*
X66711285Y-114242124D01*
X66239571Y-113480124D02*
X66167000Y-113480124D01*
X66094428Y-113516410D01*
X66058142Y-113552695D01*
X66021857Y-113625267D01*
X65985571Y-113770410D01*
X65985571Y-113951838D01*
X66021857Y-114096981D01*
X66058142Y-114169552D01*
X66094428Y-114205838D01*
X66167000Y-114242124D01*
X66239571Y-114242124D01*
X66312142Y-114205838D01*
X66348428Y-114169552D01*
X66384714Y-114096981D01*
X66421000Y-113951838D01*
X66421000Y-113770410D01*
X66384714Y-113625267D01*
X66348428Y-113552695D01*
X66312142Y-113516410D01*
X66239571Y-113480124D01*
X65259857Y-114242124D02*
X65695285Y-114242124D01*
X65477571Y-114242124D02*
X65477571Y-113480124D01*
X65550142Y-113588981D01*
X65622714Y-113661552D01*
X65695285Y-113697838D01*
X64897000Y-114242124D02*
X64751857Y-114242124D01*
X64679285Y-114205838D01*
X64643000Y-114169552D01*
X64570428Y-114060695D01*
X64534142Y-113915552D01*
X64534142Y-113625267D01*
X64570428Y-113552695D01*
X64606714Y-113516410D01*
X64679285Y-113480124D01*
X64824428Y-113480124D01*
X64897000Y-113516410D01*
X64933285Y-113552695D01*
X64969571Y-113625267D01*
X64969571Y-113806695D01*
X64933285Y-113879267D01*
X64897000Y-113915552D01*
X64824428Y-113951838D01*
X64679285Y-113951838D01*
X64606714Y-113915552D01*
X64570428Y-113879267D01*
X64534142Y-113806695D01*
X63481857Y-113480124D02*
X63409285Y-113480124D01*
X63336714Y-113516410D01*
X63300428Y-113552695D01*
X63264142Y-113625267D01*
X63227857Y-113770410D01*
X63227857Y-113951838D01*
X63264142Y-114096981D01*
X63300428Y-114169552D01*
X63336714Y-114205838D01*
X63409285Y-114242124D01*
X63481857Y-114242124D01*
X63554428Y-114205838D01*
X63590714Y-114169552D01*
X63627000Y-114096981D01*
X63663285Y-113951838D01*
X63663285Y-113770410D01*
X63627000Y-113625267D01*
X63590714Y-113552695D01*
X63554428Y-113516410D01*
X63481857Y-113480124D01*
X62901285Y-114169552D02*
X62865000Y-114205838D01*
X62901285Y-114242124D01*
X62937571Y-114205838D01*
X62901285Y-114169552D01*
X62901285Y-114242124D01*
X62611000Y-113480124D02*
X62139285Y-113480124D01*
X62393285Y-113770410D01*
X62284428Y-113770410D01*
X62211857Y-113806695D01*
X62175571Y-113842981D01*
X62139285Y-113915552D01*
X62139285Y-114096981D01*
X62175571Y-114169552D01*
X62211857Y-114205838D01*
X62284428Y-114242124D01*
X62502142Y-114242124D01*
X62574714Y-114205838D01*
X62611000Y-114169552D01*
X61812714Y-114169552D02*
X61776428Y-114205838D01*
X61812714Y-114242124D01*
X61849000Y-114205838D01*
X61812714Y-114169552D01*
X61812714Y-114242124D01*
X61304714Y-113480124D02*
X61232142Y-113480124D01*
X61159571Y-113516410D01*
X61123285Y-113552695D01*
X61087000Y-113625267D01*
X61050714Y-113770410D01*
X61050714Y-113951838D01*
X61087000Y-114096981D01*
X61123285Y-114169552D01*
X61159571Y-114205838D01*
X61232142Y-114242124D01*
X61304714Y-114242124D01*
X61377285Y-114205838D01*
X61413571Y-114169552D01*
X61449857Y-114096981D01*
X61486142Y-113951838D01*
X61486142Y-113770410D01*
X61449857Y-113625267D01*
X61413571Y-113552695D01*
X61377285Y-113516410D01*
X61304714Y-113480124D01*
X60724142Y-113951838D02*
X60143571Y-113951838D01*
X59454142Y-114242124D02*
X59454142Y-113842981D01*
X59490428Y-113770410D01*
X59563000Y-113734124D01*
X59708142Y-113734124D01*
X59780714Y-113770410D01*
X59454142Y-114205838D02*
X59526714Y-114242124D01*
X59708142Y-114242124D01*
X59780714Y-114205838D01*
X59817000Y-114133267D01*
X59817000Y-114060695D01*
X59780714Y-113988124D01*
X59708142Y-113951838D01*
X59526714Y-113951838D01*
X59454142Y-113915552D01*
X57494714Y-114169552D02*
X57531000Y-114205838D01*
X57639857Y-114242124D01*
X57712428Y-114242124D01*
X57821285Y-114205838D01*
X57893857Y-114133267D01*
X57930142Y-114060695D01*
X57966428Y-113915552D01*
X57966428Y-113806695D01*
X57930142Y-113661552D01*
X57893857Y-113588981D01*
X57821285Y-113516410D01*
X57712428Y-113480124D01*
X57639857Y-113480124D01*
X57531000Y-113516410D01*
X57494714Y-113552695D01*
X56877857Y-114205838D02*
X56950428Y-114242124D01*
X57095571Y-114242124D01*
X57168142Y-114205838D01*
X57204428Y-114133267D01*
X57204428Y-113842981D01*
X57168142Y-113770410D01*
X57095571Y-113734124D01*
X56950428Y-113734124D01*
X56877857Y-113770410D01*
X56841571Y-113842981D01*
X56841571Y-113915552D01*
X57204428Y-113988124D01*
X56406142Y-114242124D02*
X56478714Y-114205838D01*
X56515000Y-114133267D01*
X56515000Y-113480124D01*
X56007000Y-114242124D02*
X56079571Y-114205838D01*
X56115857Y-114133267D01*
X56115857Y-113480124D01*
X54882142Y-113842981D02*
X54773285Y-113879267D01*
X54737000Y-113915552D01*
X54700714Y-113988124D01*
X54700714Y-114096981D01*
X54737000Y-114169552D01*
X54773285Y-114205838D01*
X54845857Y-114242124D01*
X55136142Y-114242124D01*
X55136142Y-113480124D01*
X54882142Y-113480124D01*
X54809571Y-113516410D01*
X54773285Y-113552695D01*
X54737000Y-113625267D01*
X54737000Y-113697838D01*
X54773285Y-113770410D01*
X54809571Y-113806695D01*
X54882142Y-113842981D01*
X55136142Y-113842981D01*
X54047571Y-114242124D02*
X54047571Y-113842981D01*
X54083857Y-113770410D01*
X54156428Y-113734124D01*
X54301571Y-113734124D01*
X54374142Y-113770410D01*
X54047571Y-114205838D02*
X54120142Y-114242124D01*
X54301571Y-114242124D01*
X54374142Y-114205838D01*
X54410428Y-114133267D01*
X54410428Y-114060695D01*
X54374142Y-113988124D01*
X54301571Y-113951838D01*
X54120142Y-113951838D01*
X54047571Y-113915552D01*
X53575857Y-114242124D02*
X53648428Y-114205838D01*
X53684714Y-114133267D01*
X53684714Y-113480124D01*
X52959000Y-114242124D02*
X52959000Y-113842981D01*
X52995285Y-113770410D01*
X53067857Y-113734124D01*
X53213000Y-113734124D01*
X53285571Y-113770410D01*
X52959000Y-114205838D02*
X53031571Y-114242124D01*
X53213000Y-114242124D01*
X53285571Y-114205838D01*
X53321857Y-114133267D01*
X53321857Y-114060695D01*
X53285571Y-113988124D01*
X53213000Y-113951838D01*
X53031571Y-113951838D01*
X52959000Y-113915552D01*
X52596142Y-113734124D02*
X52596142Y-114242124D01*
X52596142Y-113806695D02*
X52559857Y-113770410D01*
X52487285Y-113734124D01*
X52378428Y-113734124D01*
X52305857Y-113770410D01*
X52269571Y-113842981D01*
X52269571Y-114242124D01*
X51580142Y-114205838D02*
X51652714Y-114242124D01*
X51797857Y-114242124D01*
X51870428Y-114205838D01*
X51906714Y-114169552D01*
X51943000Y-114096981D01*
X51943000Y-113879267D01*
X51906714Y-113806695D01*
X51870428Y-113770410D01*
X51797857Y-113734124D01*
X51652714Y-113734124D01*
X51580142Y-113770410D01*
X50963285Y-114205838D02*
X51035857Y-114242124D01*
X51181000Y-114242124D01*
X51253571Y-114205838D01*
X51289857Y-114133267D01*
X51289857Y-113842981D01*
X51253571Y-113770410D01*
X51181000Y-113734124D01*
X51035857Y-113734124D01*
X50963285Y-113770410D01*
X50927000Y-113842981D01*
X50927000Y-113915552D01*
X51289857Y-113988124D01*
X50600428Y-114242124D02*
X50600428Y-113734124D01*
X50600428Y-113879267D02*
X50564142Y-113806695D01*
X50527857Y-113770410D01*
X50455285Y-113734124D01*
X50382714Y-113734124D01*
X62574714Y-82219074D02*
X62828714Y-81856217D01*
X63010142Y-82219074D02*
X63010142Y-81457074D01*
X62719857Y-81457074D01*
X62647285Y-81493360D01*
X62611000Y-81529645D01*
X62574714Y-81602217D01*
X62574714Y-81711074D01*
X62611000Y-81783645D01*
X62647285Y-81819931D01*
X62719857Y-81856217D01*
X63010142Y-81856217D01*
X61921571Y-82219074D02*
X61921571Y-81819931D01*
X61957857Y-81747360D01*
X62030428Y-81711074D01*
X62175571Y-81711074D01*
X62248142Y-81747360D01*
X61921571Y-82182788D02*
X61994142Y-82219074D01*
X62175571Y-82219074D01*
X62248142Y-82182788D01*
X62284428Y-82110217D01*
X62284428Y-82037645D01*
X62248142Y-81965074D01*
X62175571Y-81928788D01*
X61994142Y-81928788D01*
X61921571Y-81892502D01*
X61667571Y-81711074D02*
X61377285Y-81711074D01*
X61558714Y-81457074D02*
X61558714Y-82110217D01*
X61522428Y-82182788D01*
X61449857Y-82219074D01*
X61377285Y-82219074D01*
X61123285Y-82219074D02*
X61123285Y-81711074D01*
X61123285Y-81457074D02*
X61159571Y-81493360D01*
X61123285Y-81529645D01*
X61087000Y-81493360D01*
X61123285Y-81457074D01*
X61123285Y-81529645D01*
X60651571Y-82219074D02*
X60724142Y-82182788D01*
X60760428Y-82146502D01*
X60796714Y-82073931D01*
X60796714Y-81856217D01*
X60760428Y-81783645D01*
X60724142Y-81747360D01*
X60651571Y-81711074D01*
X60542714Y-81711074D01*
X60470142Y-81747360D01*
X60433857Y-81783645D01*
X60397571Y-81856217D01*
X60397571Y-82073931D01*
X60433857Y-82146502D01*
X60470142Y-82182788D01*
X60542714Y-82219074D01*
X60651571Y-82219074D01*
X59599285Y-81711074D02*
X59309000Y-81711074D01*
X59490428Y-82219074D02*
X59490428Y-81565931D01*
X59454142Y-81493360D01*
X59381571Y-81457074D01*
X59309000Y-81457074D01*
X58946142Y-82219074D02*
X59018714Y-82182788D01*
X59055000Y-82146502D01*
X59091285Y-82073931D01*
X59091285Y-81856217D01*
X59055000Y-81783645D01*
X59018714Y-81747360D01*
X58946142Y-81711074D01*
X58837285Y-81711074D01*
X58764714Y-81747360D01*
X58728428Y-81783645D01*
X58692142Y-81856217D01*
X58692142Y-82073931D01*
X58728428Y-82146502D01*
X58764714Y-82182788D01*
X58837285Y-82219074D01*
X58946142Y-82219074D01*
X58365571Y-82219074D02*
X58365571Y-81711074D01*
X58365571Y-81856217D02*
X58329285Y-81783645D01*
X58293000Y-81747360D01*
X58220428Y-81711074D01*
X58147857Y-81711074D01*
X56877857Y-82146502D02*
X56914142Y-82182788D01*
X57023000Y-82219074D01*
X57095571Y-82219074D01*
X57204428Y-82182788D01*
X57277000Y-82110217D01*
X57313285Y-82037645D01*
X57349571Y-81892502D01*
X57349571Y-81783645D01*
X57313285Y-81638502D01*
X57277000Y-81565931D01*
X57204428Y-81493360D01*
X57095571Y-81457074D01*
X57023000Y-81457074D01*
X56914142Y-81493360D01*
X56877857Y-81529645D01*
X56551285Y-81819931D02*
X56297285Y-81819931D01*
X56188428Y-82219074D02*
X56551285Y-82219074D01*
X56551285Y-81457074D01*
X56188428Y-81457074D01*
X55499000Y-82219074D02*
X55861857Y-82219074D01*
X55861857Y-81457074D01*
X54882142Y-82219074D02*
X55245000Y-82219074D01*
X55245000Y-81457074D01*
X54809571Y-82291645D02*
X54229000Y-82291645D01*
X53793571Y-81819931D02*
X53684714Y-81856217D01*
X53648428Y-81892502D01*
X53612142Y-81965074D01*
X53612142Y-82073931D01*
X53648428Y-82146502D01*
X53684714Y-82182788D01*
X53757285Y-82219074D01*
X54047571Y-82219074D01*
X54047571Y-81457074D01*
X53793571Y-81457074D01*
X53721000Y-81493360D01*
X53684714Y-81529645D01*
X53648428Y-81602217D01*
X53648428Y-81674788D01*
X53684714Y-81747360D01*
X53721000Y-81783645D01*
X53793571Y-81819931D01*
X54047571Y-81819931D01*
X53321857Y-82001360D02*
X52959000Y-82001360D01*
X53394428Y-82219074D02*
X53140428Y-81457074D01*
X52886428Y-82219074D01*
X52741285Y-81457074D02*
X52305857Y-81457074D01*
X52523571Y-82219074D02*
X52523571Y-81457074D01*
X52051857Y-82219074D02*
X52051857Y-81457074D01*
X51761571Y-81457074D01*
X51689000Y-81493360D01*
X51652714Y-81529645D01*
X51616428Y-81602217D01*
X51616428Y-81711074D01*
X51652714Y-81783645D01*
X51689000Y-81819931D01*
X51761571Y-81856217D01*
X52051857Y-81856217D01*
X50854428Y-82219074D02*
X51108428Y-81856217D01*
X51289857Y-82219074D02*
X51289857Y-81457074D01*
X50999571Y-81457074D01*
X50927000Y-81493360D01*
X50890714Y-81529645D01*
X50854428Y-81602217D01*
X50854428Y-81711074D01*
X50890714Y-81783645D01*
X50927000Y-81819931D01*
X50999571Y-81856217D01*
X51289857Y-81856217D01*
X50527857Y-81819931D02*
X50273857Y-81819931D01*
X50165000Y-82219074D02*
X50527857Y-82219074D01*
X50527857Y-81457074D01*
X50165000Y-81457074D01*
X49874714Y-82182788D02*
X49765857Y-82219074D01*
X49584428Y-82219074D01*
X49511857Y-82182788D01*
X49475571Y-82146502D01*
X49439285Y-82073931D01*
X49439285Y-82001360D01*
X49475571Y-81928788D01*
X49511857Y-81892502D01*
X49584428Y-81856217D01*
X49729571Y-81819931D01*
X49802142Y-81783645D01*
X49838428Y-81747360D01*
X49874714Y-81674788D01*
X49874714Y-81602217D01*
X49838428Y-81529645D01*
X49802142Y-81493360D01*
X49729571Y-81457074D01*
X49548142Y-81457074D01*
X49439285Y-81493360D01*
X49185285Y-81457074D02*
X48677285Y-81457074D01*
X49185285Y-82219074D01*
X48677285Y-82219074D01*
X64661142Y-82683894D02*
X64588571Y-82683894D01*
X64516000Y-82720180D01*
X64479714Y-82756465D01*
X64443428Y-82829037D01*
X64407142Y-82974180D01*
X64407142Y-83155608D01*
X64443428Y-83300751D01*
X64479714Y-83373322D01*
X64516000Y-83409608D01*
X64588571Y-83445894D01*
X64661142Y-83445894D01*
X64733714Y-83409608D01*
X64770000Y-83373322D01*
X64806285Y-83300751D01*
X64842571Y-83155608D01*
X64842571Y-82974180D01*
X64806285Y-82829037D01*
X64770000Y-82756465D01*
X64733714Y-82720180D01*
X64661142Y-82683894D01*
X64080571Y-83373322D02*
X64044285Y-83409608D01*
X64080571Y-83445894D01*
X64116857Y-83409608D01*
X64080571Y-83373322D01*
X64080571Y-83445894D01*
X63790285Y-82683894D02*
X63282285Y-82683894D01*
X63608857Y-83445894D01*
X62629142Y-82683894D02*
X62992000Y-82683894D01*
X63028285Y-83046751D01*
X62992000Y-83010465D01*
X62919428Y-82974180D01*
X62738000Y-82974180D01*
X62665428Y-83010465D01*
X62629142Y-83046751D01*
X62592857Y-83119322D01*
X62592857Y-83300751D01*
X62629142Y-83373322D01*
X62665428Y-83409608D01*
X62738000Y-83445894D01*
X62919428Y-83445894D01*
X62992000Y-83409608D01*
X63028285Y-83373322D01*
X61359142Y-82937894D02*
X61359142Y-83445894D01*
X61540571Y-82647608D02*
X61722000Y-83191894D01*
X61250285Y-83191894D01*
X60052857Y-83409608D02*
X60125428Y-83445894D01*
X60270571Y-83445894D01*
X60343142Y-83409608D01*
X60379428Y-83373322D01*
X60415714Y-83300751D01*
X60415714Y-83083037D01*
X60379428Y-83010465D01*
X60343142Y-82974180D01*
X60270571Y-82937894D01*
X60125428Y-82937894D01*
X60052857Y-82974180D01*
X59436000Y-83409608D02*
X59508571Y-83445894D01*
X59653714Y-83445894D01*
X59726285Y-83409608D01*
X59762571Y-83337037D01*
X59762571Y-83046751D01*
X59726285Y-82974180D01*
X59653714Y-82937894D01*
X59508571Y-82937894D01*
X59436000Y-82974180D01*
X59399714Y-83046751D01*
X59399714Y-83119322D01*
X59762571Y-83191894D01*
X58964285Y-83445894D02*
X59036857Y-83409608D01*
X59073142Y-83337037D01*
X59073142Y-82683894D01*
X58565142Y-83445894D02*
X58637714Y-83409608D01*
X58674000Y-83337037D01*
X58674000Y-82683894D01*
X57694285Y-83155608D02*
X57113714Y-83155608D01*
X56242857Y-82683894D02*
X55771142Y-82683894D01*
X56025142Y-82974180D01*
X55916285Y-82974180D01*
X55843714Y-83010465D01*
X55807428Y-83046751D01*
X55771142Y-83119322D01*
X55771142Y-83300751D01*
X55807428Y-83373322D01*
X55843714Y-83409608D01*
X55916285Y-83445894D01*
X56134000Y-83445894D01*
X56206571Y-83409608D01*
X56242857Y-83373322D01*
X55517142Y-82683894D02*
X55045428Y-82683894D01*
X55299428Y-82974180D01*
X55190571Y-82974180D01*
X55118000Y-83010465D01*
X55081714Y-83046751D01*
X55045428Y-83119322D01*
X55045428Y-83300751D01*
X55081714Y-83373322D01*
X55118000Y-83409608D01*
X55190571Y-83445894D01*
X55408285Y-83445894D01*
X55480857Y-83409608D01*
X55517142Y-83373322D01*
X54718857Y-83445894D02*
X54718857Y-82683894D01*
X54646285Y-83155608D02*
X54428571Y-83445894D01*
X54428571Y-82937894D02*
X54718857Y-83228180D01*
X53521428Y-83155608D02*
X52940857Y-83155608D01*
X52578000Y-82937894D02*
X51997428Y-83155608D01*
X52578000Y-83373322D01*
X50691142Y-82683894D02*
X51054000Y-82683894D01*
X51090285Y-83046751D01*
X51054000Y-83010465D01*
X50981428Y-82974180D01*
X50800000Y-82974180D01*
X50727428Y-83010465D01*
X50691142Y-83046751D01*
X50654857Y-83119322D01*
X50654857Y-83300751D01*
X50691142Y-83373322D01*
X50727428Y-83409608D01*
X50800000Y-83445894D01*
X50981428Y-83445894D01*
X51054000Y-83409608D01*
X51090285Y-83373322D01*
X50001714Y-82683894D02*
X50146857Y-82683894D01*
X50219428Y-82720180D01*
X50255714Y-82756465D01*
X50328285Y-82865322D01*
X50364571Y-83010465D01*
X50364571Y-83300751D01*
X50328285Y-83373322D01*
X50292000Y-83409608D01*
X50219428Y-83445894D01*
X50074285Y-83445894D01*
X50001714Y-83409608D01*
X49965428Y-83373322D01*
X49929142Y-83300751D01*
X49929142Y-83119322D01*
X49965428Y-83046751D01*
X50001714Y-83010465D01*
X50074285Y-82974180D01*
X50219428Y-82974180D01*
X50292000Y-83010465D01*
X50328285Y-83046751D01*
X50364571Y-83119322D01*
X49602571Y-83155608D02*
X49022000Y-83155608D01*
X48296285Y-82683894D02*
X48659142Y-82683894D01*
X48695428Y-83046751D01*
X48659142Y-83010465D01*
X48586571Y-82974180D01*
X48405142Y-82974180D01*
X48332571Y-83010465D01*
X48296285Y-83046751D01*
X48260000Y-83119322D01*
X48260000Y-83300751D01*
X48296285Y-83373322D01*
X48332571Y-83409608D01*
X48405142Y-83445894D01*
X48586571Y-83445894D01*
X48659142Y-83409608D01*
X48695428Y-83373322D01*
X48006000Y-82683894D02*
X47498000Y-82683894D01*
X47824571Y-83445894D01*
X47207714Y-83445894D02*
X47207714Y-82683894D01*
X47135142Y-83155608D02*
X46917428Y-83445894D01*
X46917428Y-82937894D02*
X47207714Y-83228180D01*
X63826571Y-83910714D02*
X63754000Y-83910714D01*
X63681428Y-83947000D01*
X63645142Y-83983285D01*
X63608857Y-84055857D01*
X63572571Y-84201000D01*
X63572571Y-84382428D01*
X63608857Y-84527571D01*
X63645142Y-84600142D01*
X63681428Y-84636428D01*
X63754000Y-84672714D01*
X63826571Y-84672714D01*
X63899142Y-84636428D01*
X63935428Y-84600142D01*
X63971714Y-84527571D01*
X64008000Y-84382428D01*
X64008000Y-84201000D01*
X63971714Y-84055857D01*
X63935428Y-83983285D01*
X63899142Y-83947000D01*
X63826571Y-83910714D01*
X63246000Y-84600142D02*
X63209714Y-84636428D01*
X63246000Y-84672714D01*
X63282285Y-84636428D01*
X63246000Y-84600142D01*
X63246000Y-84672714D01*
X62520285Y-83910714D02*
X62883142Y-83910714D01*
X62919428Y-84273571D01*
X62883142Y-84237285D01*
X62810571Y-84201000D01*
X62629142Y-84201000D01*
X62556571Y-84237285D01*
X62520285Y-84273571D01*
X62484000Y-84346142D01*
X62484000Y-84527571D01*
X62520285Y-84600142D01*
X62556571Y-84636428D01*
X62629142Y-84672714D01*
X62810571Y-84672714D01*
X62883142Y-84636428D01*
X62919428Y-84600142D01*
X61794571Y-83910714D02*
X62157428Y-83910714D01*
X62193714Y-84273571D01*
X62157428Y-84237285D01*
X62084857Y-84201000D01*
X61903428Y-84201000D01*
X61830857Y-84237285D01*
X61794571Y-84273571D01*
X61758285Y-84346142D01*
X61758285Y-84527571D01*
X61794571Y-84600142D01*
X61830857Y-84636428D01*
X61903428Y-84672714D01*
X62084857Y-84672714D01*
X62157428Y-84636428D01*
X62193714Y-84600142D01*
X60923714Y-83910714D02*
X60452000Y-83910714D01*
X60706000Y-84201000D01*
X60597142Y-84201000D01*
X60524571Y-84237285D01*
X60488285Y-84273571D01*
X60452000Y-84346142D01*
X60452000Y-84527571D01*
X60488285Y-84600142D01*
X60524571Y-84636428D01*
X60597142Y-84672714D01*
X60814857Y-84672714D01*
X60887428Y-84636428D01*
X60923714Y-84600142D01*
X59218285Y-84636428D02*
X59290857Y-84672714D01*
X59436000Y-84672714D01*
X59508571Y-84636428D01*
X59544857Y-84600142D01*
X59581142Y-84527571D01*
X59581142Y-84309857D01*
X59544857Y-84237285D01*
X59508571Y-84201000D01*
X59436000Y-84164714D01*
X59290857Y-84164714D01*
X59218285Y-84201000D01*
X58601428Y-84636428D02*
X58674000Y-84672714D01*
X58819142Y-84672714D01*
X58891714Y-84636428D01*
X58928000Y-84563857D01*
X58928000Y-84273571D01*
X58891714Y-84201000D01*
X58819142Y-84164714D01*
X58674000Y-84164714D01*
X58601428Y-84201000D01*
X58565142Y-84273571D01*
X58565142Y-84346142D01*
X58928000Y-84418714D01*
X58129714Y-84672714D02*
X58202285Y-84636428D01*
X58238571Y-84563857D01*
X58238571Y-83910714D01*
X57730571Y-84672714D02*
X57803142Y-84636428D01*
X57839428Y-84563857D01*
X57839428Y-83910714D01*
X56859714Y-84382428D02*
X56279142Y-84382428D01*
X55408285Y-83910714D02*
X54900285Y-83910714D01*
X55226857Y-84672714D01*
X54501142Y-84237285D02*
X54573714Y-84201000D01*
X54610000Y-84164714D01*
X54646285Y-84092142D01*
X54646285Y-84055857D01*
X54610000Y-83983285D01*
X54573714Y-83947000D01*
X54501142Y-83910714D01*
X54356000Y-83910714D01*
X54283428Y-83947000D01*
X54247142Y-83983285D01*
X54210857Y-84055857D01*
X54210857Y-84092142D01*
X54247142Y-84164714D01*
X54283428Y-84201000D01*
X54356000Y-84237285D01*
X54501142Y-84237285D01*
X54573714Y-84273571D01*
X54610000Y-84309857D01*
X54646285Y-84382428D01*
X54646285Y-84527571D01*
X54610000Y-84600142D01*
X54573714Y-84636428D01*
X54501142Y-84672714D01*
X54356000Y-84672714D01*
X54283428Y-84636428D01*
X54247142Y-84600142D01*
X54210857Y-84527571D01*
X54210857Y-84382428D01*
X54247142Y-84309857D01*
X54283428Y-84273571D01*
X54356000Y-84237285D01*
X53884285Y-84672714D02*
X53884285Y-83910714D01*
X53811714Y-84382428D02*
X53594000Y-84672714D01*
X53594000Y-84164714D02*
X53884285Y-84455000D01*
X52686857Y-84382428D02*
X52106285Y-84382428D01*
X51743428Y-84164714D02*
X51162857Y-84382428D01*
X51743428Y-84600142D01*
X49820285Y-84672714D02*
X50255714Y-84672714D01*
X50038000Y-84672714D02*
X50038000Y-83910714D01*
X50110571Y-84019571D01*
X50183142Y-84092142D01*
X50255714Y-84128428D01*
X49167142Y-83910714D02*
X49312285Y-83910714D01*
X49384857Y-83947000D01*
X49421142Y-83983285D01*
X49493714Y-84092142D01*
X49530000Y-84237285D01*
X49530000Y-84527571D01*
X49493714Y-84600142D01*
X49457428Y-84636428D01*
X49384857Y-84672714D01*
X49239714Y-84672714D01*
X49167142Y-84636428D01*
X49130857Y-84600142D01*
X49094571Y-84527571D01*
X49094571Y-84346142D01*
X49130857Y-84273571D01*
X49167142Y-84237285D01*
X49239714Y-84201000D01*
X49384857Y-84201000D01*
X49457428Y-84237285D01*
X49493714Y-84273571D01*
X49530000Y-84346142D01*
X48731714Y-84672714D02*
X48586571Y-84672714D01*
X48514000Y-84636428D01*
X48477714Y-84600142D01*
X48405142Y-84491285D01*
X48368857Y-84346142D01*
X48368857Y-84055857D01*
X48405142Y-83983285D01*
X48441428Y-83947000D01*
X48514000Y-83910714D01*
X48659142Y-83910714D01*
X48731714Y-83947000D01*
X48768000Y-83983285D01*
X48804285Y-84055857D01*
X48804285Y-84237285D01*
X48768000Y-84309857D01*
X48731714Y-84346142D01*
X48659142Y-84382428D01*
X48514000Y-84382428D01*
X48441428Y-84346142D01*
X48405142Y-84309857D01*
X48368857Y-84237285D01*
X48042285Y-84672714D02*
X48042285Y-83910714D01*
X47969714Y-84382428D02*
X47752000Y-84672714D01*
X47752000Y-84164714D02*
X48042285Y-84455000D01*
X64189428Y-85137534D02*
X64116857Y-85137534D01*
X64044285Y-85173820D01*
X64008000Y-85210105D01*
X63971714Y-85282677D01*
X63935428Y-85427820D01*
X63935428Y-85609248D01*
X63971714Y-85754391D01*
X64008000Y-85826962D01*
X64044285Y-85863248D01*
X64116857Y-85899534D01*
X64189428Y-85899534D01*
X64262000Y-85863248D01*
X64298285Y-85826962D01*
X64334571Y-85754391D01*
X64370857Y-85609248D01*
X64370857Y-85427820D01*
X64334571Y-85282677D01*
X64298285Y-85210105D01*
X64262000Y-85173820D01*
X64189428Y-85137534D01*
X63608857Y-85826962D02*
X63572571Y-85863248D01*
X63608857Y-85899534D01*
X63645142Y-85863248D01*
X63608857Y-85826962D01*
X63608857Y-85899534D01*
X62919428Y-85391534D02*
X62919428Y-85899534D01*
X63100857Y-85101248D02*
X63282285Y-85645534D01*
X62810571Y-85645534D01*
X62375142Y-85137534D02*
X62302571Y-85137534D01*
X62230000Y-85173820D01*
X62193714Y-85210105D01*
X62157428Y-85282677D01*
X62121142Y-85427820D01*
X62121142Y-85609248D01*
X62157428Y-85754391D01*
X62193714Y-85826962D01*
X62230000Y-85863248D01*
X62302571Y-85899534D01*
X62375142Y-85899534D01*
X62447714Y-85863248D01*
X62484000Y-85826962D01*
X62520285Y-85754391D01*
X62556571Y-85609248D01*
X62556571Y-85427820D01*
X62520285Y-85282677D01*
X62484000Y-85210105D01*
X62447714Y-85173820D01*
X62375142Y-85137534D01*
X61250285Y-85210105D02*
X61214000Y-85173820D01*
X61141428Y-85137534D01*
X60960000Y-85137534D01*
X60887428Y-85173820D01*
X60851142Y-85210105D01*
X60814857Y-85282677D01*
X60814857Y-85355248D01*
X60851142Y-85464105D01*
X61286571Y-85899534D01*
X60814857Y-85899534D01*
X59581142Y-85863248D02*
X59653714Y-85899534D01*
X59798857Y-85899534D01*
X59871428Y-85863248D01*
X59907714Y-85826962D01*
X59944000Y-85754391D01*
X59944000Y-85536677D01*
X59907714Y-85464105D01*
X59871428Y-85427820D01*
X59798857Y-85391534D01*
X59653714Y-85391534D01*
X59581142Y-85427820D01*
X58964285Y-85863248D02*
X59036857Y-85899534D01*
X59182000Y-85899534D01*
X59254571Y-85863248D01*
X59290857Y-85790677D01*
X59290857Y-85500391D01*
X59254571Y-85427820D01*
X59182000Y-85391534D01*
X59036857Y-85391534D01*
X58964285Y-85427820D01*
X58928000Y-85500391D01*
X58928000Y-85572962D01*
X59290857Y-85645534D01*
X58492571Y-85899534D02*
X58565142Y-85863248D01*
X58601428Y-85790677D01*
X58601428Y-85137534D01*
X58093428Y-85899534D02*
X58166000Y-85863248D01*
X58202285Y-85790677D01*
X58202285Y-85137534D01*
X57222571Y-85609248D02*
X56642000Y-85609248D01*
X55299428Y-85899534D02*
X55734857Y-85899534D01*
X55517142Y-85899534D02*
X55517142Y-85137534D01*
X55589714Y-85246391D01*
X55662285Y-85318962D01*
X55734857Y-85355248D01*
X54646285Y-85391534D02*
X54646285Y-85899534D01*
X54827714Y-85101248D02*
X55009142Y-85645534D01*
X54537428Y-85645534D01*
X53884285Y-85137534D02*
X54247142Y-85137534D01*
X54283428Y-85500391D01*
X54247142Y-85464105D01*
X54174571Y-85427820D01*
X53993142Y-85427820D01*
X53920571Y-85464105D01*
X53884285Y-85500391D01*
X53848000Y-85572962D01*
X53848000Y-85754391D01*
X53884285Y-85826962D01*
X53920571Y-85863248D01*
X53993142Y-85899534D01*
X54174571Y-85899534D01*
X54247142Y-85863248D01*
X54283428Y-85826962D01*
X53521428Y-85899534D02*
X53521428Y-85137534D01*
X53448857Y-85609248D02*
X53231142Y-85899534D01*
X53231142Y-85391534D02*
X53521428Y-85681820D01*
X52324000Y-85609248D02*
X51743428Y-85609248D01*
X51380571Y-85391534D02*
X50800000Y-85609248D01*
X51380571Y-85826962D01*
X49892857Y-85210105D02*
X49856571Y-85173820D01*
X49784000Y-85137534D01*
X49602571Y-85137534D01*
X49530000Y-85173820D01*
X49493714Y-85210105D01*
X49457428Y-85282677D01*
X49457428Y-85355248D01*
X49493714Y-85464105D01*
X49929142Y-85899534D01*
X49457428Y-85899534D01*
X49022000Y-85464105D02*
X49094571Y-85427820D01*
X49130857Y-85391534D01*
X49167142Y-85318962D01*
X49167142Y-85282677D01*
X49130857Y-85210105D01*
X49094571Y-85173820D01*
X49022000Y-85137534D01*
X48876857Y-85137534D01*
X48804285Y-85173820D01*
X48768000Y-85210105D01*
X48731714Y-85282677D01*
X48731714Y-85318962D01*
X48768000Y-85391534D01*
X48804285Y-85427820D01*
X48876857Y-85464105D01*
X49022000Y-85464105D01*
X49094571Y-85500391D01*
X49130857Y-85536677D01*
X49167142Y-85609248D01*
X49167142Y-85754391D01*
X49130857Y-85826962D01*
X49094571Y-85863248D01*
X49022000Y-85899534D01*
X48876857Y-85899534D01*
X48804285Y-85863248D01*
X48768000Y-85826962D01*
X48731714Y-85754391D01*
X48731714Y-85609248D01*
X48768000Y-85536677D01*
X48804285Y-85500391D01*
X48876857Y-85464105D01*
X48260000Y-85137534D02*
X48187428Y-85137534D01*
X48114857Y-85173820D01*
X48078571Y-85210105D01*
X48042285Y-85282677D01*
X48006000Y-85427820D01*
X48006000Y-85609248D01*
X48042285Y-85754391D01*
X48078571Y-85826962D01*
X48114857Y-85863248D01*
X48187428Y-85899534D01*
X48260000Y-85899534D01*
X48332571Y-85863248D01*
X48368857Y-85826962D01*
X48405142Y-85754391D01*
X48441428Y-85609248D01*
X48441428Y-85427820D01*
X48405142Y-85282677D01*
X48368857Y-85210105D01*
X48332571Y-85173820D01*
X48260000Y-85137534D01*
X47679428Y-85899534D02*
X47679428Y-85137534D01*
X47606857Y-85609248D02*
X47389142Y-85899534D01*
X47389142Y-85391534D02*
X47679428Y-85681820D01*
X61268428Y-86364354D02*
X61195857Y-86364354D01*
X61123285Y-86400640D01*
X61087000Y-86436925D01*
X61050714Y-86509497D01*
X61014428Y-86654640D01*
X61014428Y-86836068D01*
X61050714Y-86981211D01*
X61087000Y-87053782D01*
X61123285Y-87090068D01*
X61195857Y-87126354D01*
X61268428Y-87126354D01*
X61341000Y-87090068D01*
X61377285Y-87053782D01*
X61413571Y-86981211D01*
X61449857Y-86836068D01*
X61449857Y-86654640D01*
X61413571Y-86509497D01*
X61377285Y-86436925D01*
X61341000Y-86400640D01*
X61268428Y-86364354D01*
X60687857Y-87053782D02*
X60651571Y-87090068D01*
X60687857Y-87126354D01*
X60724142Y-87090068D01*
X60687857Y-87053782D01*
X60687857Y-87126354D01*
X60361285Y-86436925D02*
X60325000Y-86400640D01*
X60252428Y-86364354D01*
X60071000Y-86364354D01*
X59998428Y-86400640D01*
X59962142Y-86436925D01*
X59925857Y-86509497D01*
X59925857Y-86582068D01*
X59962142Y-86690925D01*
X60397571Y-87126354D01*
X59925857Y-87126354D01*
X59236428Y-86364354D02*
X59599285Y-86364354D01*
X59635571Y-86727211D01*
X59599285Y-86690925D01*
X59526714Y-86654640D01*
X59345285Y-86654640D01*
X59272714Y-86690925D01*
X59236428Y-86727211D01*
X59200142Y-86799782D01*
X59200142Y-86981211D01*
X59236428Y-87053782D01*
X59272714Y-87090068D01*
X59345285Y-87126354D01*
X59526714Y-87126354D01*
X59599285Y-87090068D01*
X59635571Y-87053782D01*
X57893857Y-87126354D02*
X58329285Y-87126354D01*
X58111571Y-87126354D02*
X58111571Y-86364354D01*
X58184142Y-86473211D01*
X58256714Y-86545782D01*
X58329285Y-86582068D01*
X56660142Y-87090068D02*
X56732714Y-87126354D01*
X56877857Y-87126354D01*
X56950428Y-87090068D01*
X56986714Y-87053782D01*
X57023000Y-86981211D01*
X57023000Y-86763497D01*
X56986714Y-86690925D01*
X56950428Y-86654640D01*
X56877857Y-86618354D01*
X56732714Y-86618354D01*
X56660142Y-86654640D01*
X56043285Y-87090068D02*
X56115857Y-87126354D01*
X56261000Y-87126354D01*
X56333571Y-87090068D01*
X56369857Y-87017497D01*
X56369857Y-86727211D01*
X56333571Y-86654640D01*
X56261000Y-86618354D01*
X56115857Y-86618354D01*
X56043285Y-86654640D01*
X56007000Y-86727211D01*
X56007000Y-86799782D01*
X56369857Y-86872354D01*
X55571571Y-87126354D02*
X55644142Y-87090068D01*
X55680428Y-87017497D01*
X55680428Y-86364354D01*
X55172428Y-87126354D02*
X55245000Y-87090068D01*
X55281285Y-87017497D01*
X55281285Y-86364354D01*
X54301571Y-86836068D02*
X53721000Y-86836068D01*
X52850142Y-86364354D02*
X52378428Y-86364354D01*
X52632428Y-86654640D01*
X52523571Y-86654640D01*
X52451000Y-86690925D01*
X52414714Y-86727211D01*
X52378428Y-86799782D01*
X52378428Y-86981211D01*
X52414714Y-87053782D01*
X52451000Y-87090068D01*
X52523571Y-87126354D01*
X52741285Y-87126354D01*
X52813857Y-87090068D01*
X52850142Y-87053782D01*
X51906714Y-86364354D02*
X51834142Y-86364354D01*
X51761571Y-86400640D01*
X51725285Y-86436925D01*
X51689000Y-86509497D01*
X51652714Y-86654640D01*
X51652714Y-86836068D01*
X51689000Y-86981211D01*
X51725285Y-87053782D01*
X51761571Y-87090068D01*
X51834142Y-87126354D01*
X51906714Y-87126354D01*
X51979285Y-87090068D01*
X52015571Y-87053782D01*
X52051857Y-86981211D01*
X52088142Y-86836068D01*
X52088142Y-86654640D01*
X52051857Y-86509497D01*
X52015571Y-86436925D01*
X51979285Y-86400640D01*
X51906714Y-86364354D01*
X51181000Y-86364354D02*
X51108428Y-86364354D01*
X51035857Y-86400640D01*
X50999571Y-86436925D01*
X50963285Y-86509497D01*
X50927000Y-86654640D01*
X50927000Y-86836068D01*
X50963285Y-86981211D01*
X50999571Y-87053782D01*
X51035857Y-87090068D01*
X51108428Y-87126354D01*
X51181000Y-87126354D01*
X51253571Y-87090068D01*
X51289857Y-87053782D01*
X51326142Y-86981211D01*
X51362428Y-86836068D01*
X51362428Y-86654640D01*
X51326142Y-86509497D01*
X51289857Y-86436925D01*
X51253571Y-86400640D01*
X51181000Y-86364354D01*
X50600428Y-87126354D02*
X50600428Y-86364354D01*
X50527857Y-86836068D02*
X50310142Y-87126354D01*
X50310142Y-86618354D02*
X50600428Y-86908640D01*
M02*
